G04*
G04 #@! TF.GenerationSoftware,Altium Limited,Altium Designer,22.3.1 (43)*
G04*
G04 Layer_Physical_Order=1*
G04 Layer_Color=255*
%FSLAX25Y25*%
%MOIN*%
G70*
G04*
G04 #@! TF.SameCoordinates,92B69D45-59D0-419F-891E-8DCF12F20353*
G04*
G04*
G04 #@! TF.FilePolarity,Positive*
G04*
G01*
G75*
%ADD14R,0.03150X0.01575*%
%ADD15R,0.03150X0.01181*%
%ADD19C,0.01181*%
D14*
X233858Y55118D02*
D03*
Y1969D02*
D03*
D15*
X224016Y45276D02*
D03*
Y43307D02*
D03*
Y35433D02*
D03*
Y25591D02*
D03*
Y23622D02*
D03*
Y21654D02*
D03*
Y19685D02*
D03*
Y17717D02*
D03*
Y15748D02*
D03*
Y13780D02*
D03*
Y11811D02*
D03*
Y9843D02*
D03*
Y7874D02*
D03*
Y5906D02*
D03*
Y27559D02*
D03*
Y29528D02*
D03*
Y31496D02*
D03*
Y33465D02*
D03*
Y37402D02*
D03*
Y39370D02*
D03*
Y41339D02*
D03*
Y47244D02*
D03*
Y49213D02*
D03*
Y51181D02*
D03*
D19*
X45276Y61181D02*
G03*
X57244Y49213I11969J0D01*
G01*
X43307Y61181D02*
G03*
X57244Y47244I13937J0D01*
G01*
X37402Y61181D02*
G03*
X57244Y41339I19842J0D01*
G01*
X35433Y61181D02*
G03*
X57244Y39370I21811J0D01*
G01*
X33465Y61181D02*
G03*
X57244Y37402I23779J0D01*
G01*
X31496Y61181D02*
G03*
X57244Y35433I25748J0D01*
G01*
X29528Y61181D02*
G03*
X57244Y33465I27716J0D01*
G01*
X27559Y61181D02*
G03*
X57244Y31496I29685J0D01*
G01*
X25591Y61181D02*
G03*
X57244Y29528I31653J0D01*
G01*
X21654Y61181D02*
G03*
X57244Y25591I35590J0D01*
G01*
X41339Y61181D02*
G03*
X57244Y45276I15905J0D01*
G01*
X9842Y61181D02*
G03*
X57244Y13779I47401J0D01*
G01*
X11811Y61181D02*
G03*
X57244Y15748I45433J0D01*
G01*
X7874Y61181D02*
G03*
X57244Y11811I49370J0D01*
G01*
X13779Y61181D02*
G03*
X57244Y17716I43464J0D01*
G01*
X5905Y61181D02*
G03*
X57244Y9842I51338J0D01*
G01*
X3937Y61181D02*
G03*
X57244Y7874I53307J0D01*
G01*
X15748Y61181D02*
G03*
X57244Y19685I41496J0D01*
G01*
X19685Y61181D02*
G03*
X57244Y23622I37559J0D01*
G01*
X17716Y61181D02*
G03*
X57244Y21653I39527J0D01*
G01*
X39370Y61181D02*
G03*
X57244Y43307I17874J0D01*
G01*
X47244Y61181D02*
G03*
X57244Y51181I10000J0D01*
G01*
X1968Y61181D02*
G03*
X57244Y5905I55275J0D01*
G01*
X23622Y61181D02*
G03*
X57244Y27559I33622J0D01*
G01*
X76772Y51181D02*
X208661D01*
X76772Y49213D02*
X208661D01*
X76772Y47244D02*
X208661D01*
X76772Y23622D02*
X208662D01*
X76772Y21653D02*
X208661D01*
X57244Y31496D02*
X76772D01*
X57244Y29528D02*
X76772D01*
X57244Y9842D02*
X76772D01*
X57244Y11811D02*
X76772D01*
X57244Y13779D02*
X76772D01*
X57244Y15748D02*
X76772D01*
X57244Y17716D02*
X76772D01*
X57244Y23622D02*
X76772D01*
X57244Y25591D02*
X76772D01*
X57244Y27559D02*
X76772D01*
X57244Y21653D02*
X76772D01*
X57244Y19685D02*
X76772D01*
X57244Y7874D02*
X76772D01*
X43307Y61181D02*
Y116142D01*
X45276Y61181D02*
Y116142D01*
X41339Y61181D02*
Y116142D01*
X39370Y61181D02*
Y116142D01*
X7874Y61181D02*
Y116142D01*
X5905Y61181D02*
Y116142D01*
X9842Y61181D02*
Y116142D01*
X23622Y61181D02*
Y116142D01*
X21654Y61181D02*
Y116142D01*
X1968Y61181D02*
Y116142D01*
X47244Y61181D02*
Y116142D01*
X19685Y61181D02*
Y116142D01*
X17716Y61181D02*
Y116142D01*
X3937Y61181D02*
Y116142D01*
X33465Y61181D02*
Y116142D01*
X31496Y61181D02*
Y116142D01*
X29528Y61181D02*
Y116142D01*
X27559Y61181D02*
Y116142D01*
X25591Y61181D02*
Y116142D01*
X35433Y61181D02*
Y116142D01*
X11811Y61181D02*
Y116142D01*
X15748Y61181D02*
Y116142D01*
X13779Y61181D02*
Y116142D01*
X37402Y61181D02*
Y116142D01*
X76772Y45276D02*
X208661D01*
X76772Y41339D02*
X208661D01*
X76772Y43307D02*
X208661D01*
X57244Y37402D02*
X76772D01*
X57244Y35433D02*
X76772D01*
X57244Y33465D02*
X76772D01*
X57244Y39370D02*
X76772D01*
X57244Y41339D02*
X76772D01*
X57244Y51181D02*
X76772D01*
X57244Y47244D02*
X76772D01*
X57244Y49213D02*
X76772D01*
X57244Y45276D02*
X76772D01*
X57244Y43307D02*
X76772D01*
Y11811D02*
X208662D01*
X76772Y9842D02*
X208661D01*
X76772Y7874D02*
X208662D01*
X76772Y5905D02*
X208661D01*
X76772Y35433D02*
X208661D01*
X76772Y33465D02*
X208662D01*
X76772Y31496D02*
X208661D01*
X76772Y29528D02*
X208662D01*
X76772Y37402D02*
X208662D01*
X76772Y27559D02*
X208661D01*
X76772Y25591D02*
X208662D01*
X76772Y39370D02*
X208661D01*
X57244Y5905D02*
X76772D01*
Y15748D02*
X208662D01*
X76772Y17716D02*
X208661D01*
X76772Y19685D02*
X208662D01*
X76772Y13779D02*
X208661D01*
X208662Y7874D02*
X223228D01*
X208661Y5905D02*
X223228D01*
X208661Y7874D02*
X208662D01*
X208661Y9842D02*
X223228D01*
Y5905D02*
Y5906D01*
Y27559D02*
Y27559D01*
X208661Y11811D02*
X208662D01*
X208661Y29528D02*
X208662Y29528D01*
X208661Y31496D02*
X223228D01*
X208662Y29528D02*
X223228D01*
X208661Y13779D02*
X223228D01*
X208662Y11811D02*
X223228D01*
Y47244D02*
Y47244D01*
X208661Y51181D02*
X223228D01*
X208661Y49213D02*
X223228D01*
X208661Y47244D02*
X223228D01*
X208661Y45276D02*
X223228D01*
X208661Y43307D02*
X223228D01*
X208661Y41339D02*
X223228D01*
X208661Y39370D02*
X223228D01*
X208662Y37402D02*
X223228D01*
X208661Y35433D02*
X223228D01*
X208662Y33465D02*
X223228D01*
Y39370D02*
Y39370D01*
Y35433D02*
Y35433D01*
Y31496D02*
Y31496D01*
Y17716D02*
Y17717D01*
Y21653D02*
Y21654D01*
Y13779D02*
Y13780D01*
Y9842D02*
Y9843D01*
X208661Y15748D02*
X208662D01*
X208662Y23622D02*
X223228D01*
X208662Y25591D02*
X223228D01*
X208661Y27559D02*
X223228D01*
X208661Y23622D02*
X208662Y23622D01*
X208662Y19685D02*
X223228D01*
X208661Y17716D02*
X223228D01*
X208661Y25591D02*
X208662Y25591D01*
X208661Y21653D02*
X223228D01*
X208662Y15748D02*
X223228D01*
X208661Y33465D02*
X208662Y33465D01*
X208661Y51181D02*
Y51181D01*
Y19685D02*
X208662D01*
X208661Y49213D02*
Y49213D01*
Y41339D02*
Y41339D01*
Y37402D02*
X208662Y37402D01*
X208661Y43307D02*
Y43307D01*
M02*
