G04*
G04 #@! TF.GenerationSoftware,Altium Limited,Altium Designer,22.3.1 (43)*
G04*
G04 Layer_Color=65535*
%FSLAX25Y25*%
%MOIN*%
G70*
G04*
G04 #@! TF.SameCoordinates,92B69D45-59D0-419F-891E-8DCF12F20353*
G04*
G04*
G04 #@! TF.FilePolarity,Positive*
G04*
G01*
G75*
%ADD10C,0.01000*%
%ADD11C,0.00394*%
%ADD12C,0.00787*%
%ADD13C,0.00600*%
D10*
X49213Y98425D02*
X60055D01*
X49213Y118110D02*
X60055D01*
D11*
X59055D02*
Y128110D01*
Y88425D02*
Y98425D01*
Y118110D02*
X61055Y124110D01*
X57055D02*
X59055Y118110D01*
X57055Y92425D02*
X59055Y98425D01*
X61055Y92425D01*
X75197Y108896D02*
Y106535D01*
X76378D01*
X76771Y106928D01*
Y107322D01*
X76378Y107715D01*
X75197D01*
X76378D01*
X76771Y108109D01*
Y108502D01*
X76378Y108896D01*
X75197D01*
X77952Y106535D02*
X78739D01*
X79133Y106928D01*
Y107715D01*
X78739Y108109D01*
X77952D01*
X77558Y107715D01*
Y106928D01*
X77952Y106535D01*
X80313Y108502D02*
Y108109D01*
X79920D01*
X80707D01*
X80313D01*
Y106928D01*
X80707Y106535D01*
X82281Y108502D02*
Y108109D01*
X81888D01*
X82675D01*
X82281D01*
Y106928D01*
X82675Y106535D01*
X84249D02*
X85036D01*
X85430Y106928D01*
Y107715D01*
X85036Y108109D01*
X84249D01*
X83855Y107715D01*
Y106928D01*
X84249Y106535D01*
X86217D02*
Y108109D01*
X86611D01*
X87004Y107715D01*
Y106535D01*
Y107715D01*
X87398Y108109D01*
X87791Y107715D01*
Y106535D01*
X90940D02*
X92120D01*
X92514Y106928D01*
X92120Y107322D01*
X91333D01*
X90940Y107715D01*
X91333Y108109D01*
X92514D01*
X93695Y108502D02*
Y108109D01*
X93301D01*
X94088D01*
X93695D01*
Y106928D01*
X94088Y106535D01*
X95269D02*
X96056D01*
X95663D01*
Y108109D01*
X95269D01*
X97631Y106535D02*
Y108502D01*
Y107715D01*
X97237D01*
X98024D01*
X97631D01*
Y108502D01*
X98024Y108896D01*
X99598Y106535D02*
Y108502D01*
Y107715D01*
X99205D01*
X99992D01*
X99598D01*
Y108502D01*
X99992Y108896D01*
X101173Y106535D02*
Y108109D01*
X102353D01*
X102747Y107715D01*
Y106535D01*
X104715D02*
X103928D01*
X103534Y106928D01*
Y107715D01*
X103928Y108109D01*
X104715D01*
X105108Y107715D01*
Y107322D01*
X103534D01*
X105895Y108109D02*
Y106535D01*
Y107322D01*
X106289Y107715D01*
X106683Y108109D01*
X107076D01*
X75197Y104724D02*
X75590Y105117D01*
X76378D01*
X76771Y104724D01*
Y103149D01*
X76378Y102756D01*
X75590D01*
X75197Y103149D01*
Y104724D01*
X77558Y102756D02*
Y103149D01*
X77952D01*
Y102756D01*
X77558D01*
X81100D02*
X79526D01*
X81100Y104330D01*
Y104724D01*
X80707Y105117D01*
X79920D01*
X79526Y104724D01*
X81888Y102756D02*
Y104330D01*
X82281D01*
X82675Y103937D01*
Y102756D01*
Y103937D01*
X83068Y104330D01*
X83462Y103937D01*
Y102756D01*
X84249D02*
Y104330D01*
X84643D01*
X85036Y103937D01*
Y102756D01*
Y103937D01*
X85430Y104330D01*
X85823Y103937D01*
Y102756D01*
D12*
X224213Y56398D02*
X231102D01*
X224213Y53347D02*
Y56398D01*
X222736Y53347D02*
X224213D01*
X222736D02*
Y55118D01*
X220768D02*
X222736D01*
X220768Y1969D02*
Y55118D01*
Y1969D02*
X222736D01*
Y3740D01*
X224213D01*
Y689D02*
Y3740D01*
Y689D02*
X231102D01*
X235925Y3937D02*
Y53150D01*
D13*
X65391Y102404D02*
Y99780D01*
X67359D01*
X66703Y101092D01*
Y101748D01*
X67359Y102404D01*
X68671D01*
X69327Y101748D01*
Y100436D01*
X68671Y99780D01*
X69327Y103716D02*
X68671D01*
Y104372D01*
X69327D01*
Y103716D01*
X66047Y106996D02*
X65391Y107652D01*
Y108964D01*
X66047Y109619D01*
X68671D01*
X69327Y108964D01*
Y107652D01*
X68671Y106996D01*
X66047D01*
Y110931D02*
X65391Y111587D01*
Y112899D01*
X66047Y113555D01*
X68671D01*
X69327Y112899D01*
Y111587D01*
X68671Y110931D01*
X66047D01*
X219291Y5315D02*
Y6648D01*
Y5982D01*
X215293D01*
X215959Y5315D01*
X219291Y50894D02*
Y48228D01*
X216625Y50894D01*
X215959D01*
X215293Y50228D01*
Y48895D01*
X215959Y48228D01*
X219291Y54226D02*
X215293D01*
X217292Y52227D01*
Y54893D01*
M02*
