G04*
G04 #@! TF.GenerationSoftware,Altium Limited,Altium Designer,22.3.1 (43)*
G04*
G04 Layer_Physical_Order=2*
G04 Layer_Color=16711680*
%FSLAX44Y44*%
%MOMM*%
G71*
G04*
G04 #@! TF.SameCoordinates,9A4E0D1D-998E-4EB0-AC3D-6FCEA9C2E133*
G04*
G04*
G04 #@! TF.FilePolarity,Positive*
G04*
G01*
G75*
%ADD10C,0.2500*%
%ADD11C,0.1500*%
%ADD12C,0.1000*%
%ADD25C,0.2540*%
%ADD26C,0.0100*%
%ADD27C,0.7500*%
%ADD28C,2.0000*%
%ADD29C,0.4000*%
%ADD30R,0.4000X0.2500*%
%ADD31R,0.4000X0.7000*%
%ADD32R,0.3000X0.2700*%
%ADD33R,0.2700X0.3000*%
%ADD34C,0.1500*%
G04:AMPARAMS|DCode=35|XSize=0.4mm|YSize=0.26mm|CornerRadius=0.065mm|HoleSize=0mm|Usage=FLASHONLY|Rotation=270.000|XOffset=0mm|YOffset=0mm|HoleType=Round|Shape=RoundedRectangle|*
%AMROUNDEDRECTD35*
21,1,0.4000,0.1300,0,0,270.0*
21,1,0.2700,0.2600,0,0,270.0*
1,1,0.1300,-0.0650,-0.1350*
1,1,0.1300,-0.0650,0.1350*
1,1,0.1300,0.0650,0.1350*
1,1,0.1300,0.0650,-0.1350*
%
%ADD35ROUNDEDRECTD35*%
G04:AMPARAMS|DCode=36|XSize=0.37mm|YSize=0.2mm|CornerRadius=0.05mm|HoleSize=0mm|Usage=FLASHONLY|Rotation=0.000|XOffset=0mm|YOffset=0mm|HoleType=Round|Shape=RoundedRectangle|*
%AMROUNDEDRECTD36*
21,1,0.3700,0.1000,0,0,0.0*
21,1,0.2700,0.2000,0,0,0.0*
1,1,0.1000,0.1350,-0.0500*
1,1,0.1000,-0.1350,-0.0500*
1,1,0.1000,-0.1350,0.0500*
1,1,0.1000,0.1350,0.0500*
%
%ADD36ROUNDEDRECTD36*%
G04:AMPARAMS|DCode=37|XSize=0.2mm|YSize=0.23mm|CornerRadius=0.05mm|HoleSize=0mm|Usage=FLASHONLY|Rotation=45.000|XOffset=0mm|YOffset=0mm|HoleType=Round|Shape=RoundedRectangle|*
%AMROUNDEDRECTD37*
21,1,0.2000,0.1300,0,0,45.0*
21,1,0.1000,0.2300,0,0,45.0*
1,1,0.1000,0.0813,-0.0106*
1,1,0.1000,0.0106,-0.0813*
1,1,0.1000,-0.0813,0.0106*
1,1,0.1000,-0.0106,0.0813*
%
%ADD37ROUNDEDRECTD37*%
G04:AMPARAMS|DCode=38|XSize=0.4mm|YSize=0.26mm|CornerRadius=0.065mm|HoleSize=0mm|Usage=FLASHONLY|Rotation=0.000|XOffset=0mm|YOffset=0mm|HoleType=Round|Shape=RoundedRectangle|*
%AMROUNDEDRECTD38*
21,1,0.4000,0.1300,0,0,0.0*
21,1,0.2700,0.2600,0,0,0.0*
1,1,0.1300,0.1350,-0.0650*
1,1,0.1300,-0.1350,-0.0650*
1,1,0.1300,-0.1350,0.0650*
1,1,0.1300,0.1350,0.0650*
%
%ADD38ROUNDEDRECTD38*%
G04:AMPARAMS|DCode=39|XSize=0.2mm|YSize=0.23mm|CornerRadius=0.05mm|HoleSize=0mm|Usage=FLASHONLY|Rotation=315.000|XOffset=0mm|YOffset=0mm|HoleType=Round|Shape=RoundedRectangle|*
%AMROUNDEDRECTD39*
21,1,0.2000,0.1300,0,0,315.0*
21,1,0.1000,0.2300,0,0,315.0*
1,1,0.1000,-0.0106,-0.0813*
1,1,0.1000,-0.0813,-0.0106*
1,1,0.1000,0.0106,0.0813*
1,1,0.1000,0.0813,0.0106*
%
%ADD39ROUNDEDRECTD39*%
%ADD40R,0.2200X0.5400*%
%ADD41R,0.5000X0.7000*%
G36*
X285050Y119331D02*
X283976Y118945D01*
X283550Y118910D01*
X282653Y119807D01*
X281940Y120102D01*
Y116840D01*
Y113578D01*
X282653Y113873D01*
X283550Y114770D01*
X283976Y114735D01*
X285050Y114349D01*
Y102821D01*
X283976Y102435D01*
X283550Y102400D01*
X282653Y103297D01*
X281940Y103592D01*
Y100330D01*
Y97068D01*
X282653Y97363D01*
X283550Y98260D01*
X283976Y98225D01*
X285050Y97839D01*
Y86311D01*
X283976Y85925D01*
X283550Y85890D01*
X282653Y86787D01*
X281940Y87082D01*
Y83820D01*
Y80558D01*
X282653Y80853D01*
X283550Y81750D01*
X283976Y81715D01*
X285050Y81329D01*
Y68531D01*
X283976Y68145D01*
X283550Y68110D01*
X282653Y69007D01*
X281940Y69302D01*
Y66040D01*
Y62778D01*
X282653Y63073D01*
X283550Y63970D01*
X283976Y63935D01*
X285050Y63549D01*
Y46941D01*
X283976Y46555D01*
X283550Y46520D01*
X282653Y47417D01*
X281940Y47712D01*
Y44450D01*
Y41188D01*
X282653Y41483D01*
X283550Y42380D01*
X283976Y42345D01*
X285050Y41959D01*
Y25351D01*
X283976Y24965D01*
X283550Y24930D01*
X282653Y25827D01*
X281940Y26122D01*
Y22860D01*
Y19598D01*
X282653Y19893D01*
X283550Y20790D01*
X283976Y20755D01*
X285050Y20369D01*
Y6301D01*
X283976Y5915D01*
X283550Y5880D01*
X282653Y6777D01*
X281940Y7072D01*
Y3810D01*
X280670D01*
Y2540D01*
X277408D01*
X277703Y1827D01*
X278030Y1500D01*
X277409Y0D01*
X264881D01*
X264260Y1500D01*
X264587Y1827D01*
X264882Y2540D01*
X258358D01*
X258653Y1827D01*
X258980Y1500D01*
X258359Y0D01*
X242021D01*
X241400Y1500D01*
X241727Y1827D01*
X242022Y2540D01*
X235498D01*
X235793Y1827D01*
X236120Y1500D01*
X235499Y0D01*
X219161D01*
X218540Y1500D01*
X218867Y1827D01*
X219162Y2540D01*
X212638D01*
X212933Y1827D01*
X213260Y1500D01*
X212639Y0D01*
X196301D01*
X195680Y1500D01*
X196007Y1827D01*
X196302Y2540D01*
X189778D01*
X190073Y1827D01*
X190400Y1500D01*
X189779Y0D01*
X173441D01*
X172820Y1500D01*
X173147Y1827D01*
X173442Y2540D01*
X166918D01*
X167213Y1827D01*
X167540Y1500D01*
X166919Y0D01*
X150581D01*
X149960Y1500D01*
X150287Y1827D01*
X150582Y2540D01*
X144058D01*
X144353Y1827D01*
X144680Y1500D01*
X144059Y0D01*
X128991D01*
X128370Y1500D01*
X128697Y1827D01*
X128992Y2540D01*
X122468D01*
X122763Y1827D01*
X123090Y1500D01*
X122469Y0D01*
X109941D01*
X109320Y1500D01*
X109647Y1827D01*
X109942Y2540D01*
X103418D01*
X103713Y1827D01*
X104040Y1500D01*
X103419Y0D01*
X90891D01*
X90270Y1500D01*
X90597Y1827D01*
X90892Y2540D01*
X84368D01*
X84663Y1827D01*
X84990Y1500D01*
X84369Y0D01*
X69301D01*
X68680Y1500D01*
X69007Y1827D01*
X69302Y2540D01*
X62778D01*
X63073Y1827D01*
X63400Y1500D01*
X62779Y0D01*
X47711D01*
X47090Y1500D01*
X47417Y1827D01*
X47712Y2540D01*
X41188D01*
X41483Y1827D01*
X41810Y1500D01*
X41189Y0D01*
X27391D01*
X26770Y1500D01*
X27097Y1827D01*
X27392Y2540D01*
X20868D01*
X21163Y1827D01*
X21490Y1500D01*
X20869Y0D01*
X7071D01*
X6450Y1500D01*
X6777Y1827D01*
X7072Y2540D01*
X3810D01*
Y3810D01*
X2540D01*
Y7072D01*
X1827Y6777D01*
X1500Y6450D01*
X0Y7071D01*
Y43729D01*
X1500Y44350D01*
X1827Y44023D01*
X2540Y43728D01*
Y46990D01*
Y50252D01*
X1827Y49957D01*
X1500Y49630D01*
X0Y50251D01*
Y75479D01*
X1500Y76100D01*
X1827Y75773D01*
X2540Y75478D01*
Y78740D01*
Y82002D01*
X1827Y81707D01*
X1500Y81380D01*
X0Y82001D01*
Y89449D01*
X1500Y90070D01*
X1827Y89743D01*
X2540Y89448D01*
Y92710D01*
Y95972D01*
X1827Y95677D01*
X1500Y95350D01*
X0Y95971D01*
Y133050D01*
X39619D01*
X40240Y131550D01*
X40213Y131523D01*
X39918Y130810D01*
X46442D01*
X46147Y131523D01*
X46120Y131550D01*
X46741Y133050D01*
X65019D01*
X65640Y131550D01*
X65613Y131523D01*
X65318Y130810D01*
X71842D01*
X71547Y131523D01*
X71520Y131550D01*
X72141Y133050D01*
X85339D01*
X85960Y131550D01*
X85933Y131523D01*
X85638Y130810D01*
X92162D01*
X91867Y131523D01*
X91840Y131550D01*
X92461Y133050D01*
X104389D01*
X105010Y131550D01*
X104983Y131523D01*
X104688Y130810D01*
X111212D01*
X110917Y131523D01*
X110890Y131550D01*
X111511Y133050D01*
X125979D01*
X126290Y132734D01*
X126854Y131550D01*
X126738Y131270D01*
X133262D01*
X133146Y131550D01*
X133710Y132734D01*
X134021Y133050D01*
X152649D01*
X153270Y131550D01*
X153243Y131523D01*
X152710Y130236D01*
Y128844D01*
X152695Y128822D01*
X151771D01*
Y125972D01*
X150501D01*
Y124702D01*
X147501D01*
Y124162D01*
X146461D01*
Y123438D01*
X145746Y123296D01*
X145058Y122836D01*
X144173D01*
X142504Y122145D01*
X141969Y121610D01*
X139886D01*
X138618Y121357D01*
X137543Y120639D01*
X128872Y111968D01*
X127420Y111760D01*
X126864Y111864D01*
X126528Y112200D01*
X124859Y112891D01*
X123053D01*
X122288Y112574D01*
X120880Y112150D01*
X120880Y112150D01*
X120880Y112150D01*
X112800D01*
Y111450D01*
X92960D01*
X92129Y112950D01*
X92162Y113030D01*
X85638D01*
X85671Y112950D01*
X84840Y111450D01*
X79860D01*
Y99370D01*
X80098D01*
X80550Y98693D01*
Y96887D01*
X81241Y95218D01*
X82518Y93941D01*
X84187Y93250D01*
X84944D01*
X88312Y89882D01*
X89387Y89163D01*
X90655Y88911D01*
X122705D01*
X123973Y89163D01*
X125048Y89882D01*
X133153Y97987D01*
X133871Y99062D01*
X134124Y100330D01*
Y101819D01*
X135624Y102118D01*
X135851Y101568D01*
X137128Y100291D01*
X138009Y99926D01*
X138970Y98693D01*
Y96887D01*
X139661Y95218D01*
X140938Y93941D01*
X142607Y93250D01*
X142802D01*
X144050Y92343D01*
X144050Y91864D01*
Y90537D01*
X144741Y88868D01*
X146018Y87591D01*
X147687Y86900D01*
X149493D01*
X151162Y87591D01*
X152876Y87320D01*
X153860Y86336D01*
X154494Y86073D01*
X154196Y84573D01*
X80499D01*
X79426Y84360D01*
X78517Y83752D01*
X56127Y61363D01*
X55520Y60453D01*
X55306Y59380D01*
Y44267D01*
X53806Y43565D01*
X52973Y43910D01*
X51167D01*
X49498Y43219D01*
X48221Y41942D01*
X47530Y40273D01*
Y38467D01*
X48221Y36798D01*
X49498Y35521D01*
X51167Y34830D01*
X52973D01*
X54205Y35340D01*
X54220Y35330D01*
Y35330D01*
X62000D01*
Y36370D01*
X62540D01*
Y39370D01*
Y42370D01*
X62000D01*
Y43410D01*
X60914D01*
Y58219D01*
X81661Y78965D01*
X126375D01*
X126673Y77465D01*
X126060Y77211D01*
X125076Y76227D01*
X124781Y75514D01*
X131305D01*
X131010Y76227D01*
X130025Y77211D01*
X129413Y77465D01*
X129711Y78965D01*
X162424D01*
X163497Y79179D01*
X164406Y79787D01*
X181305Y96685D01*
X191047D01*
X191731Y95248D01*
X191436Y94536D01*
X194698D01*
Y91996D01*
X191436D01*
X191731Y91283D01*
X191738Y91276D01*
X191117Y89776D01*
X184047D01*
X184012Y89812D01*
X182343Y90503D01*
X180537D01*
X178868Y89812D01*
X177591Y88534D01*
X176900Y86866D01*
Y85060D01*
X177591Y83391D01*
X178868Y82114D01*
X180537Y81423D01*
X182343D01*
X184012Y82114D01*
X185047Y83149D01*
X202995D01*
X211017Y75127D01*
X212092Y74409D01*
X213360Y74156D01*
X222250D01*
X223518Y74409D01*
X224593Y75127D01*
X230943Y81477D01*
X231400Y82160D01*
X245340D01*
Y92850D01*
X245345Y92874D01*
X246419Y93948D01*
X247110Y95617D01*
Y97423D01*
X246419Y99092D01*
X245374Y100137D01*
Y100330D01*
X245160Y101403D01*
X244553Y102313D01*
X243225Y103640D01*
X242739Y104814D01*
X242103Y105450D01*
X242739Y106086D01*
X243225Y107260D01*
X243283Y107317D01*
X243890Y108227D01*
X244104Y109300D01*
Y110683D01*
X245149Y111728D01*
X245840Y113397D01*
Y115203D01*
X245149Y116872D01*
X244075Y117946D01*
X244070Y117970D01*
Y125085D01*
X245110Y125780D01*
Y129540D01*
X246380D01*
Y130810D01*
X249642D01*
X249347Y131523D01*
X249320Y131550D01*
X249941Y133050D01*
X264409D01*
X265030Y131550D01*
X265003Y131523D01*
X264708Y130810D01*
X271232D01*
X270937Y131523D01*
X270910Y131550D01*
X271531Y133050D01*
X285050D01*
Y119331D01*
D02*
G37*
G36*
X217673Y115570D02*
X220980D01*
Y114300D01*
X222250D01*
Y110936D01*
X222996Y110443D01*
X223122Y109304D01*
X223043Y109225D01*
X223041Y109220D01*
X224950D01*
Y106680D01*
X222911D01*
X223086Y105739D01*
X222161Y104814D01*
X221675Y103640D01*
X220267Y102233D01*
X219660Y101323D01*
X219446Y100250D01*
Y95640D01*
X218210D01*
Y90090D01*
X217866Y89860D01*
X216474D01*
X215187Y89327D01*
X214203Y88343D01*
X213908Y87630D01*
X217170D01*
Y86360D01*
X218440D01*
Y83001D01*
X219250Y83200D01*
Y83200D01*
X219250Y83200D01*
X221334D01*
X221908Y81814D01*
X220877Y80784D01*
X214733D01*
X207394Y88123D01*
Y96685D01*
X207720D01*
Y105836D01*
X208280Y106406D01*
Y110490D01*
Y113752D01*
X207567Y113457D01*
X206583Y112473D01*
X206051Y111189D01*
X206039Y111184D01*
X204550Y110894D01*
X204469Y111089D01*
X203342Y112215D01*
X203185Y112590D01*
X203138Y114012D01*
X206153Y117026D01*
X216797D01*
X217673Y115570D01*
D02*
G37*
%LPC*%
G36*
X149231Y128822D02*
X147501D01*
Y127242D01*
X149231D01*
Y128822D01*
D02*
G37*
G36*
X133262Y128730D02*
X131270D01*
Y126738D01*
X131983Y127033D01*
X132967Y128017D01*
X133262Y128730D01*
D02*
G37*
G36*
X128730D02*
X126738D01*
X127033Y128017D01*
X128017Y127033D01*
X128730Y126738D01*
Y128730D01*
D02*
G37*
G36*
X271232Y128270D02*
X269240D01*
Y126278D01*
X269953Y126573D01*
X270937Y127557D01*
X271232Y128270D01*
D02*
G37*
G36*
X266700D02*
X264708D01*
X265003Y127557D01*
X265987Y126573D01*
X266700Y126278D01*
Y128270D01*
D02*
G37*
G36*
X249642D02*
X247650D01*
Y126278D01*
X248363Y126573D01*
X249347Y127557D01*
X249642Y128270D01*
D02*
G37*
G36*
X111212D02*
X109220D01*
Y126278D01*
X109933Y126573D01*
X110917Y127557D01*
X111212Y128270D01*
D02*
G37*
G36*
X106680D02*
X104688D01*
X104983Y127557D01*
X105967Y126573D01*
X106680Y126278D01*
Y128270D01*
D02*
G37*
G36*
X92162D02*
X90170D01*
Y126278D01*
X90883Y126573D01*
X91867Y127557D01*
X92162Y128270D01*
D02*
G37*
G36*
X87630D02*
X85638D01*
X85933Y127557D01*
X86917Y126573D01*
X87630Y126278D01*
Y128270D01*
D02*
G37*
G36*
X71842D02*
X69850D01*
Y126278D01*
X70563Y126573D01*
X71547Y127557D01*
X71842Y128270D01*
D02*
G37*
G36*
X67310D02*
X65318D01*
X65613Y127557D01*
X66597Y126573D01*
X67310Y126278D01*
Y128270D01*
D02*
G37*
G36*
X46442D02*
X44450D01*
Y126278D01*
X45163Y126573D01*
X46147Y127557D01*
X46442Y128270D01*
D02*
G37*
G36*
X41910D02*
X39918D01*
X40213Y127557D01*
X41197Y126573D01*
X41910Y126278D01*
Y128270D01*
D02*
G37*
G36*
X279400Y120102D02*
X278687Y119807D01*
X277703Y118823D01*
X277408Y118110D01*
X279400D01*
Y120102D01*
D02*
G37*
G36*
X50800Y118832D02*
Y116840D01*
X52792D01*
X52497Y117553D01*
X51513Y118537D01*
X50800Y118832D01*
D02*
G37*
G36*
X48260D02*
X47547Y118537D01*
X46563Y117553D01*
X46268Y116840D01*
X48260D01*
Y118832D01*
D02*
G37*
G36*
X90170Y117562D02*
Y115570D01*
X92162D01*
X91867Y116283D01*
X90883Y117267D01*
X90170Y117562D01*
D02*
G37*
G36*
X87630D02*
X86917Y117267D01*
X85933Y116283D01*
X85638Y115570D01*
X87630D01*
Y117562D01*
D02*
G37*
G36*
X279400Y115570D02*
X277408D01*
X277703Y114857D01*
X278687Y113873D01*
X279400Y113578D01*
Y115570D01*
D02*
G37*
G36*
X259080Y115022D02*
Y113030D01*
X261072D01*
X260777Y113743D01*
X259793Y114727D01*
X259080Y115022D01*
D02*
G37*
G36*
X256540D02*
X255827Y114727D01*
X254843Y113743D01*
X254548Y113030D01*
X256540D01*
Y115022D01*
D02*
G37*
G36*
X52792Y114300D02*
X50800D01*
Y112308D01*
X51513Y112603D01*
X52497Y113587D01*
X52792Y114300D01*
D02*
G37*
G36*
X48260D02*
X46268D01*
X46563Y113587D01*
X47547Y112603D01*
X48260Y112308D01*
Y114300D01*
D02*
G37*
G36*
X261072Y110490D02*
X259080D01*
Y108498D01*
X259793Y108793D01*
X260777Y109777D01*
X261072Y110490D01*
D02*
G37*
G36*
X256540D02*
X254548D01*
X254843Y109777D01*
X255827Y108793D01*
X256540Y108498D01*
Y110490D01*
D02*
G37*
G36*
X279400Y103592D02*
X278687Y103297D01*
X277703Y102313D01*
X277408Y101600D01*
X279400D01*
Y103592D01*
D02*
G37*
G36*
X21701Y125590D02*
X18399D01*
X15210Y124735D01*
X12350Y123084D01*
X10015Y120750D01*
X8365Y117890D01*
X7510Y114701D01*
Y111399D01*
X8365Y108210D01*
X10015Y105350D01*
X12350Y103015D01*
X15210Y101365D01*
X18399Y100510D01*
X21701D01*
X24890Y101365D01*
X27750Y103015D01*
X30085Y105350D01*
X31735Y108210D01*
X32590Y111399D01*
Y114701D01*
X31735Y117890D01*
X30085Y120750D01*
X27750Y123084D01*
X24890Y124735D01*
X21701Y125590D01*
D02*
G37*
G36*
X279400Y99060D02*
X277408D01*
X277703Y98347D01*
X278687Y97363D01*
X279400Y97068D01*
Y99060D01*
D02*
G37*
G36*
X5080Y95972D02*
Y93980D01*
X7072D01*
X6777Y94693D01*
X5793Y95677D01*
X5080Y95972D01*
D02*
G37*
G36*
X137160Y93432D02*
Y91440D01*
X139152D01*
X138857Y92153D01*
X137873Y93137D01*
X137160Y93432D01*
D02*
G37*
G36*
X134620D02*
X133907Y93137D01*
X132923Y92153D01*
X132628Y91440D01*
X134620D01*
Y93432D01*
D02*
G37*
G36*
X34290Y92162D02*
Y90170D01*
X36282D01*
X35987Y90883D01*
X35003Y91867D01*
X34290Y92162D01*
D02*
G37*
G36*
X31750D02*
X31037Y91867D01*
X30053Y90883D01*
X29758Y90170D01*
X31750D01*
Y92162D01*
D02*
G37*
G36*
X7072Y91440D02*
X5080D01*
Y89448D01*
X5793Y89743D01*
X6777Y90727D01*
X7072Y91440D01*
D02*
G37*
G36*
X139152Y88900D02*
X137160D01*
Y86908D01*
X137873Y87203D01*
X138857Y88187D01*
X139152Y88900D01*
D02*
G37*
G36*
X134620D02*
X132628D01*
X132923Y88187D01*
X133907Y87203D01*
X134620Y86908D01*
Y88900D01*
D02*
G37*
G36*
X36282Y87630D02*
X34290D01*
Y85638D01*
X35003Y85933D01*
X35987Y86917D01*
X36282Y87630D01*
D02*
G37*
G36*
X31750D02*
X29758D01*
X30053Y86917D01*
X31037Y85933D01*
X31750Y85638D01*
Y87630D01*
D02*
G37*
G36*
X279400Y87082D02*
X278687Y86787D01*
X277703Y85803D01*
X277408Y85090D01*
X279400D01*
Y87082D01*
D02*
G37*
G36*
X255270Y83272D02*
Y81280D01*
X257262D01*
X256967Y81993D01*
X255983Y82977D01*
X255270Y83272D01*
D02*
G37*
G36*
X252730D02*
X252017Y82977D01*
X251033Y81993D01*
X250738Y81280D01*
X252730D01*
Y83272D01*
D02*
G37*
G36*
X279400Y82550D02*
X277408D01*
X277703Y81837D01*
X278687Y80853D01*
X279400Y80558D01*
Y82550D01*
D02*
G37*
G36*
X5080Y82002D02*
Y80010D01*
X7072D01*
X6777Y80723D01*
X5793Y81707D01*
X5080Y82002D01*
D02*
G37*
G36*
X171450Y80732D02*
X170737Y80437D01*
X169753Y79453D01*
X169458Y78740D01*
X171450D01*
Y80732D01*
D02*
G37*
G36*
X193040Y79462D02*
Y77470D01*
X195032D01*
X194737Y78183D01*
X193753Y79167D01*
X193040Y79462D01*
D02*
G37*
G36*
X190500D02*
X189787Y79167D01*
X188803Y78183D01*
X188508Y77470D01*
X190500D01*
Y79462D01*
D02*
G37*
G36*
X257262Y78740D02*
X255270D01*
Y76748D01*
X255983Y77043D01*
X256967Y78027D01*
X257262Y78740D01*
D02*
G37*
G36*
X252730D02*
X250738D01*
X251033Y78027D01*
X252017Y77043D01*
X252730Y76748D01*
Y78740D01*
D02*
G37*
G36*
X180800Y78090D02*
X179070D01*
Y76510D01*
X180800D01*
Y78090D01*
D02*
G37*
G36*
X7072Y77470D02*
X5080D01*
Y75478D01*
X5793Y75773D01*
X6777Y76757D01*
X7072Y77470D01*
D02*
G37*
G36*
X152383Y77121D02*
Y75128D01*
X154375D01*
X154080Y75841D01*
X153096Y76825D01*
X152383Y77121D01*
D02*
G37*
G36*
X149843D02*
X149130Y76825D01*
X148146Y75841D01*
X147851Y75128D01*
X149843D01*
Y77121D01*
D02*
G37*
G36*
X91440Y76922D02*
Y74930D01*
X93432D01*
X93137Y75643D01*
X92153Y76627D01*
X91440Y76922D01*
D02*
G37*
G36*
X88900D02*
X88187Y76627D01*
X87203Y75643D01*
X86908Y74930D01*
X88900D01*
Y76922D01*
D02*
G37*
G36*
X190500Y74930D02*
X188508D01*
X188803Y74217D01*
X189787Y73233D01*
X190500Y72938D01*
Y74930D01*
D02*
G37*
G36*
X198120Y73112D02*
Y71120D01*
X200112D01*
X199817Y71833D01*
X198833Y72817D01*
X198120Y73112D01*
D02*
G37*
G36*
X195032Y74930D02*
X193040D01*
Y72615D01*
X193417Y72264D01*
X193798Y71628D01*
X193588Y71120D01*
X195580D01*
Y73435D01*
X195203Y73786D01*
X194822Y74422D01*
X195032Y74930D01*
D02*
G37*
G36*
X131305Y72974D02*
X129313D01*
Y70982D01*
X130025Y71277D01*
X131010Y72262D01*
X131305Y72974D01*
D02*
G37*
G36*
X126773D02*
X124781D01*
X125076Y72262D01*
X126060Y71277D01*
X126773Y70982D01*
Y72974D01*
D02*
G37*
G36*
X154375Y72588D02*
X152383D01*
Y70596D01*
X153096Y70891D01*
X154080Y71876D01*
X154375Y72588D01*
D02*
G37*
G36*
X149843D02*
X147851D01*
X148146Y71876D01*
X149130Y70891D01*
X149843Y70596D01*
Y72588D01*
D02*
G37*
G36*
X93432Y72390D02*
X91440D01*
Y70398D01*
X92153Y70693D01*
X93137Y71677D01*
X93432Y72390D01*
D02*
G37*
G36*
X88900D02*
X86908D01*
X87203Y71677D01*
X88187Y70693D01*
X88900Y70398D01*
Y72390D01*
D02*
G37*
G36*
X46990Y71842D02*
Y69850D01*
X48982D01*
X48687Y70563D01*
X47703Y71547D01*
X46990Y71842D01*
D02*
G37*
G36*
X44450D02*
X43737Y71547D01*
X42753Y70563D01*
X42458Y69850D01*
X44450D01*
Y71842D01*
D02*
G37*
G36*
X224790Y70572D02*
Y68580D01*
X226782D01*
X226487Y69293D01*
X225503Y70277D01*
X224790Y70572D01*
D02*
G37*
G36*
X222250D02*
X221537Y70277D01*
X220553Y69293D01*
X220258Y68580D01*
X222250D01*
Y70572D01*
D02*
G37*
G36*
X279400Y69302D02*
X278687Y69007D01*
X277703Y68023D01*
X277408Y67310D01*
X279400D01*
Y69302D01*
D02*
G37*
G36*
X200112Y68580D02*
X198120D01*
Y66588D01*
X198833Y66883D01*
X199817Y67867D01*
X200112Y68580D01*
D02*
G37*
G36*
X195580D02*
X193588D01*
X193883Y67867D01*
X194867Y66883D01*
X195580Y66588D01*
Y68580D01*
D02*
G37*
G36*
X48982Y67310D02*
X46990D01*
Y65318D01*
X47703Y65613D01*
X48687Y66597D01*
X48982Y67310D01*
D02*
G37*
G36*
X44450D02*
X42458D01*
X42753Y66597D01*
X43737Y65613D01*
X44450Y65318D01*
Y67310D01*
D02*
G37*
G36*
X226782Y66040D02*
X224790D01*
Y64048D01*
X225503Y64343D01*
X226487Y65327D01*
X226782Y66040D01*
D02*
G37*
G36*
X222250D02*
X220258D01*
X220553Y65327D01*
X221537Y64343D01*
X222250Y64048D01*
Y66040D01*
D02*
G37*
G36*
X163830Y65492D02*
Y63500D01*
X165822D01*
X165527Y64213D01*
X164543Y65197D01*
X163830Y65492D01*
D02*
G37*
G36*
X161290D02*
X160577Y65197D01*
X159593Y64213D01*
X159298Y63500D01*
X161290D01*
Y65492D01*
D02*
G37*
G36*
X82224Y65190D02*
Y63197D01*
X84216D01*
X83921Y63910D01*
X82936Y64895D01*
X82224Y65190D01*
D02*
G37*
G36*
X79684D02*
X78971Y64895D01*
X77987Y63910D01*
X77691Y63197D01*
X79684D01*
Y65190D01*
D02*
G37*
G36*
X279400Y64770D02*
X277408D01*
X277703Y64057D01*
X278687Y63073D01*
X279400Y62778D01*
Y64770D01*
D02*
G37*
G36*
X165822Y60960D02*
X163830D01*
Y58968D01*
X164543Y59263D01*
X165527Y60247D01*
X165822Y60960D01*
D02*
G37*
G36*
X161290D02*
X159298D01*
X159593Y60247D01*
X160577Y59263D01*
X161290Y58968D01*
Y60960D01*
D02*
G37*
G36*
X84216Y60658D02*
X82224D01*
Y58665D01*
X82936Y58960D01*
X83921Y59945D01*
X84216Y60658D01*
D02*
G37*
G36*
X79684D02*
X77691D01*
X77987Y59945D01*
X78971Y58960D01*
X79684Y58665D01*
Y60658D01*
D02*
G37*
G36*
X126673Y51812D02*
Y49820D01*
X128666D01*
X128370Y50532D01*
X127386Y51517D01*
X126673Y51812D01*
D02*
G37*
G36*
X124133D02*
X123421Y51517D01*
X122436Y50532D01*
X122141Y49820D01*
X124133D01*
Y51812D01*
D02*
G37*
G36*
X173990Y80732D02*
Y77470D01*
X172720D01*
Y76200D01*
X169458D01*
X169753Y75487D01*
X169985Y75255D01*
X170142Y73761D01*
X169865Y73415D01*
X168871Y72422D01*
X168180Y70753D01*
Y68947D01*
X168871Y67278D01*
X170148Y66001D01*
X171817Y65310D01*
X172538D01*
X173540Y63810D01*
X173260Y63133D01*
Y61327D01*
X173748Y60149D01*
X173114Y58878D01*
X172869Y58649D01*
X172071D01*
X170402Y57958D01*
X169125Y56681D01*
X168433Y55012D01*
Y53206D01*
X169125Y51538D01*
X170402Y50261D01*
X172071Y49569D01*
X173877D01*
X174137Y49220D01*
X180800D01*
Y49760D01*
X181840D01*
Y57540D01*
X181114D01*
Y59123D01*
X181649Y59658D01*
X182340Y61327D01*
Y63133D01*
X181907Y64178D01*
X181840Y65650D01*
X181840Y65650D01*
X181840Y65650D01*
Y73430D01*
X180800D01*
Y73970D01*
X177800D01*
Y75240D01*
X176530D01*
Y78090D01*
X176220D01*
Y78166D01*
X175687Y79453D01*
X174703Y80437D01*
X173990Y80732D01*
D02*
G37*
G36*
X5080Y50252D02*
Y48260D01*
X7072D01*
X6777Y48973D01*
X5793Y49957D01*
X5080Y50252D01*
D02*
G37*
G36*
X163830Y48982D02*
Y46990D01*
X165822D01*
X165527Y47703D01*
X164543Y48687D01*
X163830Y48982D01*
D02*
G37*
G36*
X161290D02*
X160577Y48687D01*
X159593Y47703D01*
X159298Y46990D01*
X161290D01*
Y48982D01*
D02*
G37*
G36*
X263270Y48262D02*
Y46270D01*
X265262D01*
X264967Y46983D01*
X263983Y47967D01*
X263270Y48262D01*
D02*
G37*
G36*
X260730D02*
X260017Y47967D01*
X259033Y46983D01*
X258738Y46270D01*
X260730D01*
Y48262D01*
D02*
G37*
G36*
X240270D02*
Y46270D01*
X242262D01*
X241967Y46983D01*
X240983Y47967D01*
X240270Y48262D01*
D02*
G37*
G36*
X237730D02*
X237017Y47967D01*
X236033Y46983D01*
X235738Y46270D01*
X237730D01*
Y48262D01*
D02*
G37*
G36*
X279400Y47712D02*
X278687Y47417D01*
X277703Y46433D01*
X277408Y45720D01*
X279400D01*
Y47712D01*
D02*
G37*
G36*
X128666Y47280D02*
X126673D01*
Y45288D01*
X127386Y45583D01*
X128370Y46567D01*
X128666Y47280D01*
D02*
G37*
G36*
X124133D02*
X122141D01*
X122436Y46567D01*
X123421Y45583D01*
X124133Y45288D01*
Y47280D01*
D02*
G37*
G36*
X180800Y46680D02*
X174800D01*
Y45100D01*
X174800D01*
X175212Y44115D01*
X182166D01*
X181870Y44827D01*
X180886Y45812D01*
X180800Y45848D01*
Y46680D01*
D02*
G37*
G36*
X7072Y45720D02*
X5080D01*
Y43728D01*
X5793Y44023D01*
X6777Y45007D01*
X7072Y45720D01*
D02*
G37*
G36*
X105981Y55340D02*
X103479D01*
X101167Y54382D01*
X99398Y52613D01*
X98440Y50301D01*
Y47799D01*
X99398Y45487D01*
X101167Y43718D01*
X103479Y42760D01*
X105981D01*
X108293Y43718D01*
X110062Y45487D01*
X111020Y47799D01*
Y50301D01*
X110062Y52613D01*
X108293Y54382D01*
X105981Y55340D01*
D02*
G37*
G36*
X17981D02*
X15479D01*
X13167Y54382D01*
X11398Y52613D01*
X10440Y50301D01*
Y47799D01*
X11398Y45487D01*
X13167Y43718D01*
X15479Y42760D01*
X17981D01*
X20293Y43718D01*
X22062Y45487D01*
X23020Y47799D01*
Y50301D01*
X22062Y52613D01*
X20293Y54382D01*
X17981Y55340D01*
D02*
G37*
G36*
X165822Y44450D02*
X163830D01*
Y42458D01*
X164543Y42753D01*
X165527Y43737D01*
X165822Y44450D01*
D02*
G37*
G36*
X161290D02*
X159298D01*
X159593Y43737D01*
X160577Y42753D01*
X161290Y42458D01*
Y44450D01*
D02*
G37*
G36*
X265262Y43730D02*
X263270D01*
Y41738D01*
X263983Y42033D01*
X264967Y43017D01*
X265262Y43730D01*
D02*
G37*
G36*
X260730D02*
X258738D01*
X259033Y43017D01*
X260017Y42033D01*
X260730Y41738D01*
Y43730D01*
D02*
G37*
G36*
X242262D02*
X240270D01*
Y41738D01*
X240983Y42033D01*
X241967Y43017D01*
X242262Y43730D01*
D02*
G37*
G36*
X237730D02*
X235738D01*
X236033Y43017D01*
X237017Y42033D01*
X237730Y41738D01*
Y43730D01*
D02*
G37*
G36*
X279400Y43180D02*
X277408D01*
X277703Y42467D01*
X278687Y41483D01*
X279400Y41188D01*
Y43180D01*
D02*
G37*
G36*
X67434Y42450D02*
Y40457D01*
X69426D01*
X69131Y41170D01*
X68147Y42154D01*
X67434Y42450D01*
D02*
G37*
G36*
X182166Y41575D02*
X180173D01*
Y39583D01*
X180886Y39878D01*
X181870Y40862D01*
X182166Y41575D01*
D02*
G37*
G36*
X177633D02*
X175641D01*
X175936Y40862D01*
X176921Y39878D01*
X177633Y39583D01*
Y41575D01*
D02*
G37*
G36*
X69426Y37917D02*
X67434D01*
Y35925D01*
X68147Y36220D01*
X69131Y37205D01*
X69426Y37917D01*
D02*
G37*
G36*
X95032Y36230D02*
Y34238D01*
X97025D01*
X96730Y34950D01*
X95745Y35935D01*
X95032Y36230D01*
D02*
G37*
G36*
X92492D02*
X91780Y35935D01*
X90795Y34950D01*
X90500Y34238D01*
X92492D01*
Y36230D01*
D02*
G37*
G36*
X97025Y31698D02*
X95032D01*
Y29705D01*
X95745Y30000D01*
X96730Y30985D01*
X97025Y31698D01*
D02*
G37*
G36*
X92492D02*
X90500D01*
X90795Y30985D01*
X91780Y30000D01*
X92492Y29705D01*
Y31698D01*
D02*
G37*
G36*
X62230Y27392D02*
Y25400D01*
X64222D01*
X63927Y26113D01*
X62943Y27097D01*
X62230Y27392D01*
D02*
G37*
G36*
X59690D02*
X58977Y27097D01*
X57993Y26113D01*
X57698Y25400D01*
X59690D01*
Y27392D01*
D02*
G37*
G36*
X240270Y27262D02*
Y25270D01*
X242262D01*
X241967Y25983D01*
X240983Y26967D01*
X240270Y27262D01*
D02*
G37*
G36*
X237730D02*
X237017Y26967D01*
X236033Y25983D01*
X235738Y25270D01*
X237730D01*
Y27262D01*
D02*
G37*
G36*
X181060Y27180D02*
Y25188D01*
X183052D01*
X182757Y25900D01*
X181773Y26885D01*
X181060Y27180D01*
D02*
G37*
G36*
X178520D02*
X177807Y26885D01*
X176823Y25900D01*
X176528Y25188D01*
X178520D01*
Y27180D01*
D02*
G37*
G36*
X279400Y26122D02*
X278687Y25827D01*
X277703Y24843D01*
X277408Y24130D01*
X279400D01*
Y26122D01*
D02*
G37*
G36*
X141795Y25525D02*
Y23533D01*
X143787D01*
X143492Y24246D01*
X142508Y25230D01*
X141795Y25525D01*
D02*
G37*
G36*
X139255D02*
X138542Y25230D01*
X137558Y24246D01*
X137263Y23533D01*
X139255D01*
Y25525D01*
D02*
G37*
G36*
X64222Y22860D02*
X62230D01*
Y20868D01*
X62943Y21163D01*
X63927Y22147D01*
X64222Y22860D01*
D02*
G37*
G36*
X59690D02*
X57698D01*
X57993Y22147D01*
X58977Y21163D01*
X59690Y20868D01*
Y22860D01*
D02*
G37*
G36*
X242262Y22730D02*
X240270D01*
Y20738D01*
X240983Y21033D01*
X241967Y22017D01*
X242262Y22730D01*
D02*
G37*
G36*
X237730D02*
X235738D01*
X236033Y22017D01*
X237017Y21033D01*
X237730Y20738D01*
Y22730D01*
D02*
G37*
G36*
X183052Y22648D02*
X181060D01*
Y20655D01*
X181773Y20951D01*
X182757Y21935D01*
X183052Y22648D01*
D02*
G37*
G36*
X178520D02*
X176528D01*
X176823Y21935D01*
X177807Y20951D01*
X178520Y20655D01*
Y22648D01*
D02*
G37*
G36*
X279400Y21590D02*
X277408D01*
X277703Y20877D01*
X278687Y19893D01*
X279400Y19598D01*
Y21590D01*
D02*
G37*
G36*
X143787Y20993D02*
X141795D01*
Y19001D01*
X142508Y19296D01*
X143492Y20280D01*
X143787Y20993D01*
D02*
G37*
G36*
X139255D02*
X137263D01*
X137558Y20280D01*
X138542Y19296D01*
X139255Y19001D01*
Y20993D01*
D02*
G37*
G36*
X82822Y20222D02*
Y18230D01*
X84815D01*
X84519Y18943D01*
X83535Y19927D01*
X82822Y20222D01*
D02*
G37*
G36*
X80282D02*
X79570Y19927D01*
X78585Y18943D01*
X78290Y18230D01*
X80282D01*
Y20222D01*
D02*
G37*
G36*
X31750Y19772D02*
Y17780D01*
X33742D01*
X33447Y18493D01*
X32463Y19477D01*
X31750Y19772D01*
D02*
G37*
G36*
X29210D02*
X28497Y19477D01*
X27513Y18493D01*
X27218Y17780D01*
X29210D01*
Y19772D01*
D02*
G37*
G36*
X270000Y33549D02*
X252000D01*
X251025Y33355D01*
X250198Y32802D01*
X249645Y31975D01*
X249451Y31000D01*
Y19000D01*
X249645Y18024D01*
X250198Y17198D01*
X251025Y16645D01*
X252000Y16451D01*
X270000D01*
X270975Y16645D01*
X271802Y17198D01*
X272355Y18024D01*
X272549Y19000D01*
Y31000D01*
X272355Y31975D01*
X271802Y32802D01*
X270975Y33355D01*
X270000Y33549D01*
D02*
G37*
G36*
X84815Y15690D02*
X82822D01*
Y13698D01*
X83535Y13993D01*
X84519Y14978D01*
X84815Y15690D01*
D02*
G37*
G36*
X80282D02*
X78290D01*
X78585Y14978D01*
X79570Y13993D01*
X80282Y13698D01*
Y15690D01*
D02*
G37*
G36*
X33742Y15240D02*
X31750D01*
Y13248D01*
X32463Y13543D01*
X33447Y14527D01*
X33742Y15240D01*
D02*
G37*
G36*
X29210D02*
X27218D01*
X27513Y14527D01*
X28497Y13543D01*
X29210Y13248D01*
Y15240D01*
D02*
G37*
G36*
X279400Y7072D02*
X278687Y6777D01*
X277703Y5793D01*
X277408Y5080D01*
X279400D01*
Y7072D01*
D02*
G37*
G36*
X262890D02*
Y5080D01*
X264882D01*
X264587Y5793D01*
X263603Y6777D01*
X262890Y7072D01*
D02*
G37*
G36*
X260350D02*
X259637Y6777D01*
X258653Y5793D01*
X258358Y5080D01*
X260350D01*
Y7072D01*
D02*
G37*
G36*
X240030D02*
Y5080D01*
X242022D01*
X241727Y5793D01*
X240743Y6777D01*
X240030Y7072D01*
D02*
G37*
G36*
X237490D02*
X236777Y6777D01*
X235793Y5793D01*
X235498Y5080D01*
X237490D01*
Y7072D01*
D02*
G37*
G36*
X217170D02*
Y5080D01*
X219162D01*
X218867Y5793D01*
X217883Y6777D01*
X217170Y7072D01*
D02*
G37*
G36*
X214630D02*
X213917Y6777D01*
X212933Y5793D01*
X212638Y5080D01*
X214630D01*
Y7072D01*
D02*
G37*
G36*
X194310D02*
Y5080D01*
X196302D01*
X196007Y5793D01*
X195023Y6777D01*
X194310Y7072D01*
D02*
G37*
G36*
X191770D02*
X191057Y6777D01*
X190073Y5793D01*
X189778Y5080D01*
X191770D01*
Y7072D01*
D02*
G37*
G36*
X171450D02*
Y5080D01*
X173442D01*
X173147Y5793D01*
X172163Y6777D01*
X171450Y7072D01*
D02*
G37*
G36*
X168910D02*
X168197Y6777D01*
X167213Y5793D01*
X166918Y5080D01*
X168910D01*
Y7072D01*
D02*
G37*
G36*
X148590D02*
Y5080D01*
X150582D01*
X150287Y5793D01*
X149303Y6777D01*
X148590Y7072D01*
D02*
G37*
G36*
X146050D02*
X145337Y6777D01*
X144353Y5793D01*
X144058Y5080D01*
X146050D01*
Y7072D01*
D02*
G37*
G36*
X127000D02*
Y5080D01*
X128992D01*
X128697Y5793D01*
X127713Y6777D01*
X127000Y7072D01*
D02*
G37*
G36*
X124460D02*
X123747Y6777D01*
X122763Y5793D01*
X122468Y5080D01*
X124460D01*
Y7072D01*
D02*
G37*
G36*
X107950D02*
Y5080D01*
X109942D01*
X109647Y5793D01*
X108663Y6777D01*
X107950Y7072D01*
D02*
G37*
G36*
X105410D02*
X104697Y6777D01*
X103713Y5793D01*
X103418Y5080D01*
X105410D01*
Y7072D01*
D02*
G37*
G36*
X88900D02*
Y5080D01*
X90892D01*
X90597Y5793D01*
X89613Y6777D01*
X88900Y7072D01*
D02*
G37*
G36*
X86360D02*
X85647Y6777D01*
X84663Y5793D01*
X84368Y5080D01*
X86360D01*
Y7072D01*
D02*
G37*
G36*
X67310D02*
Y5080D01*
X69302D01*
X69007Y5793D01*
X68023Y6777D01*
X67310Y7072D01*
D02*
G37*
G36*
X64770D02*
X64057Y6777D01*
X63073Y5793D01*
X62778Y5080D01*
X64770D01*
Y7072D01*
D02*
G37*
G36*
X45720D02*
Y5080D01*
X47712D01*
X47417Y5793D01*
X46433Y6777D01*
X45720Y7072D01*
D02*
G37*
G36*
X43180D02*
X42467Y6777D01*
X41483Y5793D01*
X41188Y5080D01*
X43180D01*
Y7072D01*
D02*
G37*
G36*
X25400D02*
Y5080D01*
X27392D01*
X27097Y5793D01*
X26113Y6777D01*
X25400Y7072D01*
D02*
G37*
G36*
X22860D02*
X22147Y6777D01*
X21163Y5793D01*
X20868Y5080D01*
X22860D01*
Y7072D01*
D02*
G37*
G36*
X5080D02*
Y5080D01*
X7072D01*
X6777Y5793D01*
X5793Y6777D01*
X5080Y7072D01*
D02*
G37*
G36*
X210820Y113752D02*
Y111760D01*
X212812D01*
X212517Y112473D01*
X211533Y113457D01*
X210820Y113752D01*
D02*
G37*
G36*
X219710Y113030D02*
X217718D01*
X218013Y112317D01*
X218997Y111333D01*
X219710Y111038D01*
Y113030D01*
D02*
G37*
G36*
X212812Y109220D02*
X210820D01*
Y107228D01*
X211533Y107523D01*
X212517Y108507D01*
X212812Y109220D01*
D02*
G37*
G36*
X215900Y85090D02*
X213908D01*
X214203Y84377D01*
X215187Y83393D01*
X215900Y83098D01*
Y85090D01*
D02*
G37*
%LPD*%
D10*
X181553Y85963D02*
X182053Y86462D01*
X204368D01*
X181440Y85963D02*
X181553D01*
X156210Y129540D02*
X159822Y125928D01*
X160790D01*
X170933D01*
X173080Y128075D01*
X155614Y89532D02*
X155843Y89303D01*
X155614Y89532D02*
Y95847D01*
X117610Y101790D02*
X123883D01*
X116840Y102560D02*
X117610Y101790D01*
X116240Y103160D02*
X116840Y102560D01*
X108910Y103160D02*
X116240D01*
X217170Y86360D02*
X217480Y86050D01*
X222250D01*
X219710Y129540D02*
X223210Y126040D01*
X227330D01*
X218245Y128075D02*
X219710Y129540D01*
X211080Y128075D02*
X218245D01*
X207080D02*
X211080D01*
X85090Y97790D02*
X90655Y92225D01*
X122705D02*
X130810Y100330D01*
X90655Y92225D02*
X122705D01*
X177800Y62230D02*
Y69540D01*
Y53650D02*
Y62230D01*
X172973Y54109D02*
X173433Y53650D01*
X177800D01*
X172720Y69850D02*
X173030Y69540D01*
X177800D01*
X139886Y118296D02*
X145076D01*
X130810Y109220D02*
X139886Y118296D01*
X130810Y100330D02*
Y109220D01*
X84900Y105410D02*
X85090Y105220D01*
Y97790D02*
Y105220D01*
X147014Y120234D02*
X150464D01*
X145076Y118296D02*
X147014Y120234D01*
X171593Y114157D02*
X194230D01*
X234950Y86050D02*
X241300D01*
X228600D02*
X234950D01*
X228600Y83820D02*
Y86050D01*
X222250Y77470D02*
X228600Y83820D01*
X213360Y77470D02*
X222250D01*
X204080Y86750D02*
X213360Y77470D01*
X204080Y86750D02*
Y101925D01*
X200406Y115966D02*
X204780Y120340D01*
X194230Y114157D02*
X196039Y115966D01*
X200406D01*
X165663Y120087D02*
X171593Y114157D01*
X160790Y120228D02*
X160931Y120087D01*
X165663D01*
X204780Y120340D02*
X227330D01*
X201080Y124040D02*
X204780Y120340D01*
X201080Y124040D02*
Y128075D01*
D11*
X258000Y22000D02*
G03*
X261000Y25000I0J3000D01*
G01*
X264000Y22000D02*
G03*
X267000Y25000I0J3000D01*
G01*
X255000D02*
G03*
X258000Y22000I3000J0D01*
G01*
X261000Y25000D02*
G03*
X264000Y22000I3000J-0D01*
G01*
X255000Y28000D02*
X261000Y25000D01*
X255000D02*
X267000D01*
X261000D02*
X267000Y28000D01*
X139700Y104140D02*
X139907Y104347D01*
X150614D01*
X162424Y81769D02*
X180080Y99425D01*
X80499Y81769D02*
X162424D01*
X180080Y99425D02*
Y101925D01*
X233680Y114300D02*
Y120340D01*
X150544Y111327D02*
X152211D01*
X152264Y111380D02*
X154147D01*
X155614Y112847D01*
X152211Y111327D02*
X152264Y111380D01*
X222250Y91750D02*
X228600D01*
Y98762D01*
X189080Y122415D02*
Y128075D01*
X188825Y122160D02*
X189080Y122415D01*
X188825Y122160D02*
X188825D01*
X189312Y121674D01*
X196654Y121216D02*
Y121591D01*
X195942D02*
X196654D01*
X195080Y122453D02*
X195942Y121591D01*
X198080Y101925D02*
Y105977D01*
X200620Y108517D01*
X175049Y120439D02*
X177080Y122470D01*
X174480Y120439D02*
X175049D01*
X195080Y122453D02*
Y128075D01*
X182772Y121695D02*
X183080Y122004D01*
Y128075D01*
X188372Y110338D02*
X192080Y106630D01*
X167530Y110338D02*
X188372D01*
X165239Y108047D02*
X167530Y110338D01*
X169117Y104347D02*
X172093Y107323D01*
X184777D02*
X186080Y106020D01*
X172093Y107323D02*
X184777D01*
X227330Y120340D02*
X227973D01*
X231350Y123710D02*
X233680Y126040D01*
X231343Y123710D02*
X231350D01*
X233990Y126350D02*
X239720D01*
X233680Y126040D02*
X233990Y126350D01*
X239720D02*
X240030Y126040D01*
X227973Y120340D02*
X231343Y123710D01*
X58110Y39370D02*
Y59380D01*
X80499Y81769D01*
X116840Y108260D02*
X117172Y107928D01*
X123533D01*
X123956Y108351D01*
X177080Y122470D02*
Y128075D01*
X160764Y120202D02*
X160790Y120228D01*
X160764Y111247D02*
Y120202D01*
X150464Y111247D02*
Y120234D01*
X148590Y91440D02*
X150464Y93314D01*
Y97447D01*
X143510Y97790D02*
X146367Y100647D01*
X153414D01*
X143510Y110490D02*
X145953Y108047D01*
X153414D01*
X172403Y100647D02*
X172720Y100330D01*
X157814Y100647D02*
X172403D01*
X162903Y97447D02*
X166370Y93980D01*
X160764Y97447D02*
X162903D01*
X186080Y101925D02*
Y106020D01*
X160614Y104347D02*
X169117D01*
X157814Y108047D02*
X165239D01*
X192080Y101925D02*
Y106630D01*
X228600Y98762D02*
X229870Y100032D01*
Y102870D01*
X229950Y102950D01*
X234950Y91750D02*
Y96520D01*
X242570Y93020D02*
Y96520D01*
X241300Y91750D02*
X242570Y93020D01*
Y96520D02*
Y100330D01*
X239950Y102950D02*
X242570Y100330D01*
X234950Y96520D02*
Y102950D01*
X240030Y119070D02*
X241300Y117800D01*
Y114300D02*
Y117800D01*
Y109300D02*
Y114300D01*
X239950Y107950D02*
X241300Y109300D01*
X233680Y114300D02*
X234950Y113030D01*
Y107950D02*
Y113030D01*
X222250Y91750D02*
Y100250D01*
X224950Y102950D01*
D12*
X252000Y19000D02*
Y31000D01*
Y19000D02*
X270000D01*
X252000Y31000D02*
X270000D01*
Y19000D02*
Y31000D01*
D25*
X227330Y113030D02*
Y120340D01*
Y113030D02*
X229950Y110410D01*
Y107950D02*
Y110410D01*
X116240Y107660D02*
X116840Y108260D01*
X108910Y107660D02*
X116240D01*
X92900Y105410D02*
X101910D01*
X92900Y98870D02*
X93980Y97790D01*
X92900Y98870D02*
Y105410D01*
X52070Y39370D02*
X58110D01*
D26*
X20480Y49050D02*
G03*
X20480Y49050I-3750J0D01*
G01*
X108480D02*
G03*
X108480Y49050I-3750J0D01*
G01*
X30050Y113050D02*
G03*
X30050Y113050I-10000J0D01*
G01*
D27*
X16730Y49050D02*
D03*
X104730D02*
D03*
D28*
X20050Y113050D02*
D03*
D29*
X181440Y85963D02*
D03*
X177800Y62230D02*
D03*
X239000Y45000D02*
D03*
X262000D02*
D03*
X254000Y80010D02*
D03*
X257810Y111760D02*
D03*
X223520Y67310D02*
D03*
X239000Y24000D02*
D03*
X179790Y23918D02*
D03*
X140525Y22263D02*
D03*
X125403Y48550D02*
D03*
X151113Y73858D02*
D03*
X128043Y74244D02*
D03*
X155843Y89303D02*
D03*
X135890Y90170D02*
D03*
X90170Y73660D02*
D03*
X30480Y16510D02*
D03*
X60960Y24130D02*
D03*
X45720Y68580D02*
D03*
X33020Y88900D02*
D03*
X49530Y115570D02*
D03*
X88900Y114300D02*
D03*
X123883Y101790D02*
D03*
X66164Y39187D02*
D03*
X93762Y32968D02*
D03*
X80954Y61927D02*
D03*
X81552Y16960D02*
D03*
X172720Y77470D02*
D03*
X178903Y42845D02*
D03*
X162560Y45720D02*
D03*
Y62230D02*
D03*
X196850Y69850D02*
D03*
X191770Y76200D02*
D03*
X217170Y86360D02*
D03*
X194698Y93266D02*
D03*
X209550Y110490D02*
D03*
X220980Y114300D02*
D03*
X219710Y129540D02*
D03*
X246380D02*
D03*
X267970D02*
D03*
X280670Y83820D02*
D03*
Y100330D02*
D03*
Y116840D02*
D03*
Y66040D02*
D03*
Y44450D02*
D03*
Y22860D02*
D03*
X238760Y3810D02*
D03*
X261620D02*
D03*
X280670D02*
D03*
X215900D02*
D03*
X193040D02*
D03*
X170180D02*
D03*
X147320D02*
D03*
X125730D02*
D03*
X106680D02*
D03*
X87630D02*
D03*
X66040D02*
D03*
X44450D02*
D03*
X24130D02*
D03*
X3810D02*
D03*
Y46990D02*
D03*
Y78740D02*
D03*
Y92710D02*
D03*
X43180Y129540D02*
D03*
X68580D02*
D03*
X88900D02*
D03*
X107950D02*
D03*
X130000Y130000D02*
D03*
X156210Y129540D02*
D03*
X85090Y97790D02*
D03*
X145076Y118296D02*
D03*
X190946Y114330D02*
D03*
X189312Y121674D02*
D03*
X196654Y121216D02*
D03*
X200620Y108517D02*
D03*
X172720Y69850D02*
D03*
X172973Y54109D02*
D03*
X174480Y120439D02*
D03*
X182772Y121695D02*
D03*
X123956Y108351D02*
D03*
X148590Y91440D02*
D03*
X143510Y97790D02*
D03*
X139700Y104140D02*
D03*
X143510Y110490D02*
D03*
X172720Y100330D02*
D03*
X166370Y93980D02*
D03*
X242570Y96520D02*
D03*
X234950D02*
D03*
X241300Y114300D02*
D03*
X233680D02*
D03*
X93980Y97790D02*
D03*
X52070Y39370D02*
D03*
D30*
X108910Y103160D02*
D03*
Y107660D02*
D03*
D31*
X101910Y105410D02*
D03*
D32*
X240030Y120340D02*
D03*
Y126040D02*
D03*
X234950Y91750D02*
D03*
Y86050D02*
D03*
X241300Y91750D02*
D03*
Y86050D02*
D03*
X233680Y120340D02*
D03*
Y126040D02*
D03*
X228600Y86050D02*
D03*
Y91750D02*
D03*
X116840Y108260D02*
D03*
Y102560D02*
D03*
X227330Y120340D02*
D03*
Y126040D02*
D03*
X222250Y91750D02*
D03*
Y86050D02*
D03*
X177800Y53650D02*
D03*
Y47950D02*
D03*
Y69540D02*
D03*
Y75240D02*
D03*
X160790Y120228D02*
D03*
Y125928D02*
D03*
X150501Y120272D02*
D03*
Y125972D02*
D03*
D33*
X58110Y39370D02*
D03*
X63810D02*
D03*
D34*
X239950Y102950D02*
D03*
Y107950D02*
D03*
X234950Y102950D02*
D03*
Y107950D02*
D03*
X229950Y102950D02*
D03*
Y107950D02*
D03*
X224950Y102950D02*
D03*
Y107950D02*
D03*
D35*
X155614Y112847D02*
D03*
Y95847D02*
D03*
D36*
X150464Y111247D02*
D03*
Y97447D02*
D03*
X160764D02*
D03*
Y111247D02*
D03*
D37*
X153414Y108047D02*
D03*
X157814Y100647D02*
D03*
D38*
X150614Y104347D02*
D03*
X160614D02*
D03*
D39*
X153414Y100647D02*
D03*
X157814Y108047D02*
D03*
D40*
X211080Y128075D02*
D03*
X173080D02*
D03*
X207080D02*
D03*
X204080Y101925D02*
D03*
X201080Y128075D02*
D03*
X198080Y101925D02*
D03*
X195080Y128075D02*
D03*
X192080Y101925D02*
D03*
X189080Y128075D02*
D03*
X186080Y101925D02*
D03*
X183080Y128075D02*
D03*
X180080Y101925D02*
D03*
X177080Y128075D02*
D03*
D41*
X84900Y105410D02*
D03*
X92900D02*
D03*
M02*
