G04*
G04 #@! TF.GenerationSoftware,Altium Limited,Altium Designer,21.1.1 (26)*
G04*
G04 Layer_Color=16711935*
%FSLAX44Y44*%
%MOMM*%
G71*
G04*
G04 #@! TF.SameCoordinates,265E8744-D868-4B9A-8BEC-D162B1B1FCAB*
G04*
G04*
G04 #@! TF.FilePolarity,Negative*
G04*
G01*
G75*
%ADD18C,0.8500*%
%ADD19C,2.1000*%
%ADD45R,0.5000X0.3500*%
%ADD46R,0.5000X0.8000*%
%ADD47R,0.4000X0.3700*%
%ADD48R,0.3700X0.4000*%
%ADD49C,0.2500*%
G04:AMPARAMS|DCode=50|XSize=0.5mm|YSize=0.36mm|CornerRadius=0.115mm|HoleSize=0mm|Usage=FLASHONLY|Rotation=270.000|XOffset=0mm|YOffset=0mm|HoleType=Round|Shape=RoundedRectangle|*
%AMROUNDEDRECTD50*
21,1,0.5000,0.1300,0,0,270.0*
21,1,0.2700,0.3600,0,0,270.0*
1,1,0.2300,-0.0650,-0.1350*
1,1,0.2300,-0.0650,0.1350*
1,1,0.2300,0.0650,0.1350*
1,1,0.2300,0.0650,-0.1350*
%
%ADD50ROUNDEDRECTD50*%
G04:AMPARAMS|DCode=51|XSize=0.47mm|YSize=0.3mm|CornerRadius=0.1mm|HoleSize=0mm|Usage=FLASHONLY|Rotation=0.000|XOffset=0mm|YOffset=0mm|HoleType=Round|Shape=RoundedRectangle|*
%AMROUNDEDRECTD51*
21,1,0.4700,0.1000,0,0,0.0*
21,1,0.2700,0.3000,0,0,0.0*
1,1,0.2000,0.1350,-0.0500*
1,1,0.2000,-0.1350,-0.0500*
1,1,0.2000,-0.1350,0.0500*
1,1,0.2000,0.1350,0.0500*
%
%ADD51ROUNDEDRECTD51*%
G04:AMPARAMS|DCode=52|XSize=0.3mm|YSize=0.33mm|CornerRadius=0.1mm|HoleSize=0mm|Usage=FLASHONLY|Rotation=45.000|XOffset=0mm|YOffset=0mm|HoleType=Round|Shape=RoundedRectangle|*
%AMROUNDEDRECTD52*
21,1,0.3000,0.1300,0,0,45.0*
21,1,0.1000,0.3300,0,0,45.0*
1,1,0.2000,0.0813,-0.0106*
1,1,0.2000,0.0106,-0.0813*
1,1,0.2000,-0.0813,0.0106*
1,1,0.2000,-0.0106,0.0813*
%
%ADD52ROUNDEDRECTD52*%
G04:AMPARAMS|DCode=53|XSize=0.5mm|YSize=0.36mm|CornerRadius=0.115mm|HoleSize=0mm|Usage=FLASHONLY|Rotation=0.000|XOffset=0mm|YOffset=0mm|HoleType=Round|Shape=RoundedRectangle|*
%AMROUNDEDRECTD53*
21,1,0.5000,0.1300,0,0,0.0*
21,1,0.2700,0.3600,0,0,0.0*
1,1,0.2300,0.1350,-0.0650*
1,1,0.2300,-0.1350,-0.0650*
1,1,0.2300,-0.1350,0.0650*
1,1,0.2300,0.1350,0.0650*
%
%ADD53ROUNDEDRECTD53*%
G04:AMPARAMS|DCode=54|XSize=0.3mm|YSize=0.33mm|CornerRadius=0.1mm|HoleSize=0mm|Usage=FLASHONLY|Rotation=315.000|XOffset=0mm|YOffset=0mm|HoleType=Round|Shape=RoundedRectangle|*
%AMROUNDEDRECTD54*
21,1,0.3000,0.1300,0,0,315.0*
21,1,0.1000,0.3300,0,0,315.0*
1,1,0.2000,-0.0106,-0.0813*
1,1,0.2000,-0.0813,-0.0106*
1,1,0.2000,0.0106,0.0813*
1,1,0.2000,0.0813,0.0106*
%
%ADD54ROUNDEDRECTD54*%
%ADD55R,0.3200X0.6400*%
%ADD56R,0.6000X0.8000*%
D18*
X16730Y49050D02*
D03*
X104730D02*
D03*
D19*
X20050Y113050D02*
D03*
D45*
X108910Y103160D02*
D03*
Y107660D02*
D03*
D46*
X101910Y105410D02*
D03*
D47*
X240030Y120340D02*
D03*
Y126040D02*
D03*
X234950Y91750D02*
D03*
Y86050D02*
D03*
X241300Y91750D02*
D03*
Y86050D02*
D03*
X233680Y120340D02*
D03*
Y126040D02*
D03*
X228600Y86050D02*
D03*
Y91750D02*
D03*
X116840Y108260D02*
D03*
Y102560D02*
D03*
X227330Y120340D02*
D03*
Y126040D02*
D03*
X222250Y91750D02*
D03*
Y86050D02*
D03*
X177800Y53650D02*
D03*
Y47950D02*
D03*
Y69540D02*
D03*
Y75240D02*
D03*
X160790Y120228D02*
D03*
Y125928D02*
D03*
X150501Y120272D02*
D03*
Y125972D02*
D03*
D48*
X58110Y39370D02*
D03*
X63810D02*
D03*
D49*
X239950Y102950D02*
D03*
Y107950D02*
D03*
X234950Y102950D02*
D03*
Y107950D02*
D03*
X229950Y102950D02*
D03*
Y107950D02*
D03*
X224950Y102950D02*
D03*
Y107950D02*
D03*
D50*
X155614Y112847D02*
D03*
Y95847D02*
D03*
D51*
X150464Y111247D02*
D03*
Y97447D02*
D03*
X160764D02*
D03*
Y111247D02*
D03*
D52*
X153414Y108047D02*
D03*
X157814Y100647D02*
D03*
D53*
X150614Y104347D02*
D03*
X160614D02*
D03*
D54*
X153414Y100647D02*
D03*
X157814Y108047D02*
D03*
D55*
X211080Y128075D02*
D03*
X173080D02*
D03*
X207080D02*
D03*
X204080Y101925D02*
D03*
X201080Y128075D02*
D03*
X198080Y101925D02*
D03*
X195080Y128075D02*
D03*
X192080Y101925D02*
D03*
X189080Y128075D02*
D03*
X186080Y101925D02*
D03*
X183080Y128075D02*
D03*
X180080Y101925D02*
D03*
X177080Y128075D02*
D03*
D56*
X84900Y105410D02*
D03*
X92900D02*
D03*
M02*
