G04*
G04 #@! TF.GenerationSoftware,Altium Limited,Altium Designer,22.3.1 (43)*
G04*
G04 Layer_Color=32896*
%FSLAX44Y44*%
%MOMM*%
G71*
G04*
G04 #@! TF.SameCoordinates,9A4E0D1D-998E-4EB0-AC3D-6FCEA9C2E133*
G04*
G04*
G04 #@! TF.FilePolarity,Positive*
G04*
G01*
G75*
%ADD11C,0.1500*%
%ADD12C,0.1000*%
%ADD54C,0.1250*%
D11*
X86002Y97718D02*
X93000D01*
Y94219D01*
X91834Y93052D01*
X87169D01*
X86002Y94219D01*
Y97718D01*
X93000Y90720D02*
Y88387D01*
Y89554D01*
X86002D01*
X87169Y90720D01*
X135810Y110303D02*
X141642D01*
X142808Y109137D01*
Y106804D01*
X141642Y105638D01*
X135810D01*
X136977Y103306D02*
X135810Y102139D01*
Y99807D01*
X136977Y98640D01*
X138143D01*
X139309Y99807D01*
Y100973D01*
Y99807D01*
X140476Y98640D01*
X141642D01*
X142808Y99807D01*
Y102139D01*
X141642Y103306D01*
X247869Y109426D02*
X253701D01*
X254867Y108259D01*
Y105927D01*
X253701Y104761D01*
X247869D01*
X254867Y102428D02*
Y100095D01*
Y101262D01*
X247869D01*
X249035Y102428D01*
X120377Y96082D02*
X113380D01*
Y92584D01*
X114546Y91417D01*
X116878D01*
X118045Y92584D01*
Y96082D01*
Y93750D02*
X120377Y91417D01*
X113380Y84419D02*
X114546Y86752D01*
X116878Y89085D01*
X119211D01*
X120377Y87918D01*
Y85586D01*
X119211Y84419D01*
X118045D01*
X116878Y85586D01*
Y89085D01*
X223385Y67955D02*
X230383D01*
Y71453D01*
X229217Y72620D01*
X226884D01*
X225718Y71453D01*
Y67955D01*
Y70287D02*
X223385Y72620D01*
X230383Y79617D02*
Y74952D01*
X226884D01*
X228050Y77285D01*
Y78451D01*
X226884Y79617D01*
X224552D01*
X223385Y78451D01*
Y76118D01*
X224552Y74952D01*
X264202Y125285D02*
X257204D01*
Y121786D01*
X258370Y120620D01*
X260703D01*
X261869Y121786D01*
Y125285D01*
Y122953D02*
X264202Y120620D01*
Y114789D02*
X257204D01*
X260703Y118287D01*
Y113622D01*
X242890Y67895D02*
X249888D01*
Y71394D01*
X248722Y72560D01*
X246389D01*
X245223Y71394D01*
Y67895D01*
Y70227D02*
X242890Y72560D01*
X248722Y74893D02*
X249888Y76059D01*
Y78392D01*
X248722Y79558D01*
X247555D01*
X246389Y78392D01*
Y77225D01*
Y78392D01*
X245223Y79558D01*
X244056D01*
X242890Y78392D01*
Y76059D01*
X244056Y74893D01*
X233072Y67895D02*
X240070D01*
Y71394D01*
X238903Y72560D01*
X236571D01*
X235404Y71394D01*
Y67895D01*
Y70227D02*
X233072Y72560D01*
Y79558D02*
Y74893D01*
X237737Y79558D01*
X238903D01*
X240070Y78392D01*
Y76059D01*
X238903Y74893D01*
X275523Y124907D02*
X268525D01*
Y121408D01*
X269691Y120242D01*
X272024D01*
X273190Y121408D01*
Y124907D01*
Y122575D02*
X275523Y120242D01*
Y117909D02*
Y115577D01*
Y116743D01*
X268525D01*
X269691Y117909D01*
X105841Y93307D02*
X101176D01*
X100009Y94473D01*
Y96806D01*
X101176Y97972D01*
X105841D01*
X107007Y96806D01*
Y94473D01*
X104675Y95640D02*
X107007Y93307D01*
Y94473D02*
X105841Y93307D01*
X107007Y90975D02*
Y88642D01*
Y89808D01*
X100009D01*
X101176Y90975D01*
X182754Y96671D02*
X185086D01*
X183920D01*
Y90839D01*
X185086Y89673D01*
X186253D01*
X187419Y90839D01*
X180421Y89673D02*
X178089D01*
X179255D01*
Y96671D01*
X180421Y95504D01*
X61166Y52333D02*
X62333Y53499D01*
X64665D01*
X65831Y52333D01*
Y47667D01*
X64665Y46501D01*
X62333D01*
X61166Y47667D01*
X58834Y53499D02*
X54169D01*
Y52333D01*
X58834Y47667D01*
Y46501D01*
X126499Y124654D02*
X125332Y125820D01*
Y128153D01*
X126499Y129319D01*
X131164D01*
X132330Y128153D01*
Y125820D01*
X131164Y124654D01*
X125332Y117656D02*
X126499Y119988D01*
X128831Y122321D01*
X131164D01*
X132330Y121155D01*
Y118822D01*
X131164Y117656D01*
X129998D01*
X128831Y118822D01*
Y122321D01*
X137947Y124557D02*
X136781Y125723D01*
Y128055D01*
X137947Y129222D01*
X142612D01*
X143778Y128055D01*
Y125723D01*
X142612Y124557D01*
X136781Y117559D02*
Y122224D01*
X140279D01*
X139113Y119891D01*
Y118725D01*
X140279Y117559D01*
X142612D01*
X143778Y118725D01*
Y121058D01*
X142612Y122224D01*
X170714Y70467D02*
X171881Y69301D01*
Y66968D01*
X170714Y65802D01*
X166049D01*
X164883Y66968D01*
Y69301D01*
X166049Y70467D01*
X164883Y76299D02*
X171881D01*
X168382Y72800D01*
Y77465D01*
X189829Y49834D02*
X190995Y48668D01*
Y46336D01*
X189829Y45169D01*
X185164D01*
X183998Y46336D01*
Y48668D01*
X185164Y49834D01*
X189829Y52167D02*
X190995Y53333D01*
Y55666D01*
X189829Y56832D01*
X188663D01*
X187496Y55666D01*
Y54500D01*
Y55666D01*
X186330Y56832D01*
X185164D01*
X183998Y55666D01*
Y53333D01*
X185164Y52167D01*
X218916Y72079D02*
X220082Y70912D01*
Y68580D01*
X218916Y67414D01*
X214251D01*
X213085Y68580D01*
Y70912D01*
X214251Y72079D01*
X213085Y79076D02*
Y74411D01*
X217750Y79076D01*
X218916D01*
X220082Y77910D01*
Y75578D01*
X218916Y74411D01*
X247235Y120014D02*
X246068Y121180D01*
Y123513D01*
X247235Y124679D01*
X251900D01*
X253066Y123513D01*
Y121180D01*
X251900Y120014D01*
X253066Y117681D02*
Y115349D01*
Y116515D01*
X246068D01*
X247235Y117681D01*
D12*
X111160Y111660D02*
G03*
X111160Y111660I-500J0D01*
G01*
X222500Y111050D02*
G03*
X222500Y111050I-500J0D01*
G01*
X163232Y115347D02*
G03*
X163232Y115347I-1118J0D01*
G01*
X105410Y101410D02*
Y109410D01*
X222950Y100950D02*
Y109950D01*
Y100950D02*
X241950D01*
Y109950D01*
X222950D02*
X241950D01*
X158114Y113847D02*
X160614D01*
Y113347D02*
Y113847D01*
X150614D02*
X153114D01*
X150614Y113347D02*
Y113847D01*
Y106847D02*
Y108847D01*
Y99847D02*
Y101847D01*
Y95847D02*
Y96347D01*
Y95847D02*
X153114D01*
X157614D02*
X160614D01*
Y99347D02*
Y101847D01*
Y106347D02*
Y108847D01*
X174080Y102500D02*
X177080D01*
X171080Y99500D02*
X174080Y102500D01*
X168080Y99500D02*
X171080D01*
X168080D02*
Y130000D01*
X170080D01*
X207080Y102500D02*
X210080D01*
X213080Y99500D01*
X216080D01*
Y130000D01*
X214080D02*
X216080D01*
X88900Y102410D02*
Y108410D01*
D54*
X237830Y128090D02*
X242230D01*
X237830Y118290D02*
X242230D01*
Y121440D01*
Y124940D02*
Y128090D01*
X237830Y118290D02*
Y121440D01*
Y124940D02*
Y128090D01*
X232750Y84000D02*
X237150D01*
X232750Y93800D02*
X237150D01*
X232750Y90650D02*
Y93800D01*
Y84000D02*
Y87150D01*
X237150Y90650D02*
Y93800D01*
Y84000D02*
Y87150D01*
X239100Y84000D02*
X243500D01*
X239100Y93800D02*
X243500D01*
X239100Y90650D02*
Y93800D01*
Y84000D02*
Y87150D01*
X243500Y90650D02*
Y93800D01*
Y84000D02*
Y87150D01*
X231480Y128090D02*
X235880D01*
X231480Y118290D02*
X235880D01*
Y121440D01*
Y124940D02*
Y128090D01*
X231480Y118290D02*
Y121440D01*
Y124940D02*
Y128090D01*
X226400Y93800D02*
X230800D01*
X226400Y84000D02*
X230800D01*
Y87150D01*
Y90650D02*
Y93800D01*
X226400Y84000D02*
Y87150D01*
Y90650D02*
Y93800D01*
X114640Y100510D02*
X119040D01*
X114640Y110310D02*
X119040D01*
X114640Y107160D02*
Y110310D01*
Y100510D02*
Y103660D01*
X119040Y107160D02*
Y110310D01*
Y100510D02*
Y103660D01*
X229530Y118290D02*
Y121440D01*
Y124940D02*
Y128090D01*
X225130Y118290D02*
Y121440D01*
Y124940D02*
Y128090D01*
X229530D01*
X225130Y118290D02*
X229530D01*
X220050Y90650D02*
Y93800D01*
Y84000D02*
Y87150D01*
X224450Y90650D02*
Y93800D01*
Y84000D02*
Y87150D01*
X220050Y84000D02*
X224450D01*
X220050Y93800D02*
X224450D01*
X175600Y52550D02*
Y55700D01*
Y45900D02*
Y49050D01*
X180000Y52550D02*
Y55700D01*
Y45900D02*
Y49050D01*
X175600Y45900D02*
X180000D01*
X175600Y55700D02*
X180000D01*
Y67490D02*
Y70640D01*
Y74140D02*
Y77290D01*
X175600Y67490D02*
Y70640D01*
Y74140D02*
Y77290D01*
X180000D01*
X175600Y67490D02*
X180000D01*
X162990Y118178D02*
Y121328D01*
Y124828D02*
Y127978D01*
X158590Y118178D02*
Y121328D01*
Y124828D02*
Y127978D01*
X162990D01*
X158590Y118178D02*
X162990D01*
X152701Y118222D02*
Y121372D01*
Y124872D02*
Y128022D01*
X148301Y118222D02*
Y121372D01*
Y124872D02*
Y128022D01*
X152701D01*
X148301Y118222D02*
X152701D01*
X56060Y37170D02*
X59210D01*
X62710D02*
X65860D01*
X56060Y41570D02*
X59210D01*
X62710D02*
X65860D01*
Y37170D02*
Y41570D01*
X56060Y37170D02*
Y41570D01*
M02*
