G04*
G04 #@! TF.GenerationSoftware,Altium Limited,Altium Designer,21.1.1 (26)*
G04*
G04 Layer_Physical_Order=2*
G04 Layer_Color=16711680*
%FSLAX44Y44*%
%MOMM*%
G71*
G04*
G04 #@! TF.SameCoordinates,265E8744-D868-4B9A-8BEC-D162B1B1FCAB*
G04*
G04*
G04 #@! TF.FilePolarity,Positive*
G04*
G01*
G75*
%ADD10C,0.2500*%
%ADD11C,0.1500*%
%ADD12C,0.1000*%
%ADD28C,0.2540*%
%ADD29C,0.0100*%
%ADD30C,0.7500*%
%ADD31C,2.0000*%
%ADD32C,0.4000*%
%ADD33R,0.4000X0.2500*%
%ADD34R,0.4000X0.7000*%
%ADD35R,0.3000X0.2700*%
%ADD36R,0.2700X0.3000*%
%ADD37C,0.1500*%
G04:AMPARAMS|DCode=38|XSize=0.4mm|YSize=0.26mm|CornerRadius=0.065mm|HoleSize=0mm|Usage=FLASHONLY|Rotation=270.000|XOffset=0mm|YOffset=0mm|HoleType=Round|Shape=RoundedRectangle|*
%AMROUNDEDRECTD38*
21,1,0.4000,0.1300,0,0,270.0*
21,1,0.2700,0.2600,0,0,270.0*
1,1,0.1300,-0.0650,-0.1350*
1,1,0.1300,-0.0650,0.1350*
1,1,0.1300,0.0650,0.1350*
1,1,0.1300,0.0650,-0.1350*
%
%ADD38ROUNDEDRECTD38*%
G04:AMPARAMS|DCode=39|XSize=0.37mm|YSize=0.2mm|CornerRadius=0.05mm|HoleSize=0mm|Usage=FLASHONLY|Rotation=0.000|XOffset=0mm|YOffset=0mm|HoleType=Round|Shape=RoundedRectangle|*
%AMROUNDEDRECTD39*
21,1,0.3700,0.1000,0,0,0.0*
21,1,0.2700,0.2000,0,0,0.0*
1,1,0.1000,0.1350,-0.0500*
1,1,0.1000,-0.1350,-0.0500*
1,1,0.1000,-0.1350,0.0500*
1,1,0.1000,0.1350,0.0500*
%
%ADD39ROUNDEDRECTD39*%
G04:AMPARAMS|DCode=40|XSize=0.2mm|YSize=0.23mm|CornerRadius=0.05mm|HoleSize=0mm|Usage=FLASHONLY|Rotation=45.000|XOffset=0mm|YOffset=0mm|HoleType=Round|Shape=RoundedRectangle|*
%AMROUNDEDRECTD40*
21,1,0.2000,0.1300,0,0,45.0*
21,1,0.1000,0.2300,0,0,45.0*
1,1,0.1000,0.0813,-0.0106*
1,1,0.1000,0.0106,-0.0813*
1,1,0.1000,-0.0813,0.0106*
1,1,0.1000,-0.0106,0.0813*
%
%ADD40ROUNDEDRECTD40*%
G04:AMPARAMS|DCode=41|XSize=0.4mm|YSize=0.26mm|CornerRadius=0.065mm|HoleSize=0mm|Usage=FLASHONLY|Rotation=0.000|XOffset=0mm|YOffset=0mm|HoleType=Round|Shape=RoundedRectangle|*
%AMROUNDEDRECTD41*
21,1,0.4000,0.1300,0,0,0.0*
21,1,0.2700,0.2600,0,0,0.0*
1,1,0.1300,0.1350,-0.0650*
1,1,0.1300,-0.1350,-0.0650*
1,1,0.1300,-0.1350,0.0650*
1,1,0.1300,0.1350,0.0650*
%
%ADD41ROUNDEDRECTD41*%
G04:AMPARAMS|DCode=42|XSize=0.2mm|YSize=0.23mm|CornerRadius=0.05mm|HoleSize=0mm|Usage=FLASHONLY|Rotation=315.000|XOffset=0mm|YOffset=0mm|HoleType=Round|Shape=RoundedRectangle|*
%AMROUNDEDRECTD42*
21,1,0.2000,0.1300,0,0,315.0*
21,1,0.1000,0.2300,0,0,315.0*
1,1,0.1000,-0.0106,-0.0813*
1,1,0.1000,-0.0813,-0.0106*
1,1,0.1000,0.0106,0.0813*
1,1,0.1000,0.0813,0.0106*
%
%ADD42ROUNDEDRECTD42*%
%ADD43R,0.2200X0.5400*%
%ADD44R,0.5000X0.7000*%
G36*
X281941Y117733D02*
Y3059D01*
X3059D01*
Y129941D01*
X170480D01*
Y129345D01*
X173080D01*
Y126805D01*
X172022D01*
X172010Y125406D01*
X171817Y125044D01*
X170480Y126710D01*
Y123875D01*
X170480Y123875D01*
X170575Y122875D01*
X170106Y121744D01*
X169016Y121420D01*
X168006Y122430D01*
X166931Y123148D01*
X166489Y123236D01*
X166260Y123390D01*
X165948Y123638D01*
X165842Y123669D01*
X165751Y123730D01*
X165360Y123807D01*
X164977Y123918D01*
X164830Y123930D01*
Y124118D01*
X163790D01*
Y124651D01*
X162260Y124608D01*
Y124658D01*
X160790D01*
X159321D01*
Y124608D01*
X158229Y124658D01*
X157790D01*
Y124118D01*
X156750D01*
Y119005D01*
X156731Y118908D01*
X156741Y118857D01*
X156733Y118805D01*
X156750Y118733D01*
Y117849D01*
X156264Y117450D01*
X154964D01*
X154541Y117796D01*
Y118793D01*
X154548Y118820D01*
X154541Y118872D01*
Y118946D01*
X154553Y119010D01*
X154541Y119067D01*
Y124162D01*
X153501D01*
Y124695D01*
X151971Y124652D01*
Y124702D01*
X150501D01*
X147501D01*
Y124162D01*
X146461D01*
Y123965D01*
X146452Y123962D01*
X146023Y123877D01*
X145965Y123838D01*
X145897Y123821D01*
X145547Y123559D01*
X145183Y123315D01*
X145144Y123258D01*
X145088Y123216D01*
X144865Y122839D01*
X144862Y122836D01*
X144173D01*
X142599Y122184D01*
X142025Y122120D01*
X141679Y122009D01*
X141323Y121939D01*
X141201Y121857D01*
X141062Y121813D01*
X140821Y121610D01*
X139886D01*
X138618Y121357D01*
X137543Y120639D01*
X128518Y111615D01*
X128440Y111562D01*
X127224Y111503D01*
X126528Y112200D01*
X124859Y112891D01*
X123053D01*
X121847Y112391D01*
X120880Y112150D01*
Y112150D01*
X120880Y112150D01*
X115467D01*
X115371Y112169D01*
X115274Y112150D01*
X112800D01*
Y111595D01*
X112232Y111450D01*
X79860D01*
Y99370D01*
X80098D01*
X80550Y98693D01*
Y96887D01*
X81241Y95218D01*
X82518Y93941D01*
X84092Y93289D01*
X84544Y92929D01*
X84866Y92763D01*
X85168Y92561D01*
X85311Y92532D01*
X85441Y92465D01*
X85755Y92439D01*
X88312Y89882D01*
X89387Y89163D01*
X90655Y88911D01*
X122705D01*
X123973Y89163D01*
X125048Y89882D01*
X133153Y97987D01*
X133871Y99062D01*
X134124Y100330D01*
Y107847D01*
X138046Y111770D01*
X138678Y111512D01*
X138970Y111280D01*
Y109587D01*
X139136Y109187D01*
X138797Y108680D01*
X137128Y107989D01*
X135851Y106712D01*
X135160Y105043D01*
Y103237D01*
X135851Y101568D01*
X137128Y100291D01*
X138471Y99735D01*
X138970Y98693D01*
Y96887D01*
X139661Y95218D01*
X140938Y93941D01*
X142607Y93250D01*
X143343D01*
X144050Y92343D01*
Y90537D01*
X144741Y88868D01*
X146018Y87591D01*
X147687Y86900D01*
X149493D01*
X151162Y87591D01*
X152439Y88868D01*
X153130Y90537D01*
Y91408D01*
X153373Y91772D01*
X153430Y91847D01*
X153469Y91882D01*
X154344Y92379D01*
Y95261D01*
X154678Y95761D01*
X154695Y95847D01*
X156532D01*
X156550Y95761D01*
X156884Y95261D01*
Y92428D01*
X157103Y92472D01*
X157814Y92947D01*
X158289Y93658D01*
X158765Y93977D01*
X159414Y93848D01*
X161618D01*
X161830Y93352D01*
Y93077D01*
X162521Y91408D01*
X163798Y90131D01*
X164935Y89660D01*
X165205Y88516D01*
X161262Y84573D01*
X80499D01*
X79426Y84360D01*
X78517Y83752D01*
X56127Y61363D01*
X55520Y60453D01*
X55306Y59380D01*
Y44433D01*
X55287Y44405D01*
X55026Y44057D01*
X55008Y43987D01*
X54967Y43926D01*
X53964Y43520D01*
X53911Y43522D01*
X52973Y43910D01*
X51167D01*
X49498Y43219D01*
X48221Y41942D01*
X47530Y40273D01*
Y38467D01*
X48221Y36798D01*
X49498Y35521D01*
X51167Y34830D01*
X52973D01*
X54205Y35340D01*
X54220Y35330D01*
Y35330D01*
X56444D01*
X56588Y35319D01*
X56683Y35330D01*
X56694D01*
X56790Y35311D01*
X56887Y35330D01*
X62000D01*
Y36370D01*
X62540D01*
Y39370D01*
Y42370D01*
X62000D01*
Y43410D01*
X61361D01*
X61337Y43500D01*
X61253Y43926D01*
X61212Y43987D01*
X61194Y44057D01*
X60933Y44405D01*
X60914Y44433D01*
Y58219D01*
X81661Y78965D01*
X162424D01*
X163497Y79179D01*
X164406Y79787D01*
X179775Y95155D01*
X180231Y95219D01*
X180236Y95222D01*
X180242Y95223D01*
X180670Y95477D01*
X181102Y95731D01*
X181106Y95735D01*
X181111Y95738D01*
X182164Y96685D01*
X200766D01*
Y89776D01*
X185100D01*
X185042Y89812D01*
X184724Y90050D01*
X184616Y90077D01*
X184521Y90136D01*
X184129Y90201D01*
X183744Y90299D01*
X183634Y90283D01*
X183524Y90301D01*
X182881Y90280D01*
X182343Y90503D01*
X180537D01*
X178868Y89812D01*
X177591Y88534D01*
X176900Y86866D01*
Y85060D01*
X177591Y83391D01*
X178868Y82114D01*
X180537Y81423D01*
X182343D01*
X184012Y82114D01*
X184471Y82573D01*
X184973Y82667D01*
X185159Y82742D01*
X185358Y82771D01*
X185624Y82929D01*
X185910Y83044D01*
X186017Y83149D01*
X202995D01*
X211017Y75127D01*
X212092Y74409D01*
X213360Y74156D01*
X222250D01*
X223518Y74409D01*
X224593Y75127D01*
X230943Y81477D01*
X231400Y82160D01*
X232751D01*
X233409Y82142D01*
X233445Y82148D01*
X233480Y82141D01*
X233577Y82160D01*
X236323D01*
X236420Y82141D01*
X236455Y82148D01*
X236492Y82142D01*
X237149Y82160D01*
X239101D01*
X239758Y82142D01*
X239795Y82148D01*
X239830Y82141D01*
X239927Y82160D01*
X245340D01*
Y91913D01*
X245441Y92068D01*
X245713Y92475D01*
X245716Y92491D01*
X245725Y92505D01*
X246224Y93753D01*
X246419Y93948D01*
X247110Y95617D01*
Y97423D01*
X246419Y99092D01*
X246224Y99286D01*
X245725Y100535D01*
X245716Y100549D01*
X245713Y100565D01*
X245441Y100972D01*
X245174Y101383D01*
X245163Y101390D01*
X245160Y101403D01*
X244553Y102313D01*
X243225Y103640D01*
X242739Y104814D01*
X242103Y105450D01*
X242739Y106086D01*
X243225Y107260D01*
X243283Y107317D01*
X243890Y108227D01*
X244104Y109300D01*
Y109745D01*
X244171Y109848D01*
X244443Y110255D01*
X244446Y110271D01*
X244455Y110285D01*
X244954Y111533D01*
X245149Y111728D01*
X245840Y113397D01*
Y115203D01*
X245149Y116872D01*
X244954Y117066D01*
X244455Y118315D01*
X244446Y118329D01*
X244443Y118345D01*
X244406Y118400D01*
X244416Y118471D01*
X244355Y118709D01*
X244344Y118954D01*
X244231Y119193D01*
X244166Y119450D01*
X244070Y119649D01*
Y129930D01*
X245065Y129941D01*
X269733D01*
X281941Y117733D01*
D02*
G37*
G36*
X238591Y124850D02*
X237061Y125600D01*
Y127100D01*
X238561Y127360D01*
X238591Y124850D01*
D02*
G37*
G36*
X236649Y127100D02*
Y125600D01*
X235119Y124850D01*
X235149Y127360D01*
X236649Y127100D01*
D02*
G37*
G36*
X225400Y127190D02*
X225986Y124690D01*
X224651Y124461D01*
X224161Y127218D01*
X225400Y127190D01*
D02*
G37*
G36*
X177830Y123905D02*
X176330D01*
X176010Y125406D01*
X178150D01*
X177830Y123905D01*
D02*
G37*
G36*
X189961Y124519D02*
X190537Y123254D01*
X187756Y122930D01*
X188237Y124343D01*
X188011Y125406D01*
X190149D01*
X189961Y124519D01*
D02*
G37*
G36*
X183918Y124318D02*
X184375Y122891D01*
X181609Y123322D01*
X182192Y124554D01*
X182010Y125406D01*
X184149D01*
X183918Y124318D01*
D02*
G37*
G36*
X177299Y121628D02*
X176443Y120056D01*
X174902Y122394D01*
X176475Y122926D01*
X177299Y121628D01*
D02*
G37*
G36*
X149032Y118952D02*
X147014Y118984D01*
Y121484D01*
X149032Y121591D01*
Y118952D01*
D02*
G37*
G36*
X164760Y121337D02*
Y118837D01*
X162260Y118908D01*
Y121547D01*
X164760Y121337D01*
D02*
G37*
G36*
X234430Y117521D02*
X232930D01*
X232211Y119021D01*
X235149D01*
X234430Y117521D01*
D02*
G37*
G36*
X241830Y118330D02*
X240610Y117430D01*
X238561Y119021D01*
X241500D01*
X241830Y118330D01*
D02*
G37*
G36*
X161514Y117408D02*
X160014D01*
X159321Y118908D01*
X162260D01*
X161514Y117408D01*
D02*
G37*
G36*
X143647Y116896D02*
X142314Y117046D01*
Y119546D01*
X143647Y119696D01*
Y116896D01*
D02*
G37*
G36*
X151329Y118976D02*
X151964Y118983D01*
X151255Y117536D01*
X151214Y116734D01*
X149714D01*
X149672Y117544D01*
X149032Y118952D01*
X149600Y118958D01*
X149579Y119351D01*
X151348D01*
X151329Y118976D01*
D02*
G37*
G36*
X242700Y115728D02*
X239900D01*
X240550Y117354D01*
X242050D01*
X242700Y115728D01*
D02*
G37*
G36*
X235080D02*
X232280D01*
X232930Y117354D01*
X234430D01*
X235080Y115728D01*
D02*
G37*
G36*
X193831Y115407D02*
X193551Y112907D01*
X192248Y112812D01*
X190946Y114088D01*
X189644Y112812D01*
X188340Y112907D01*
X188060Y115407D01*
X189402Y115601D01*
X190946Y114088D01*
X192490Y115601D01*
X193831Y115407D01*
D02*
G37*
G36*
X162252Y112165D02*
X159275D01*
X160014Y113755D01*
X161514D01*
X162252Y112165D01*
D02*
G37*
G36*
X151952D02*
X148975D01*
X149714Y113755D01*
X151214D01*
X151952Y112165D01*
D02*
G37*
G36*
X242050Y111246D02*
X240550D01*
X239900Y112872D01*
X242700D01*
X242050Y111246D01*
D02*
G37*
G36*
X235700Y111555D02*
X234200Y111169D01*
X233505Y112308D01*
X235634Y113876D01*
X235700Y111555D01*
D02*
G37*
G36*
X153774Y110630D02*
X152173Y110388D01*
Y112107D01*
X153822Y112130D01*
X153774Y110630D01*
D02*
G37*
G36*
X146200Y108861D02*
X145139Y107800D01*
X143530Y108490D01*
X145510Y110470D01*
X146200Y108861D01*
D02*
G37*
G36*
X119810Y108678D02*
Y107178D01*
X118309Y106940D01*
X118279Y109428D01*
X119810Y108678D01*
D02*
G37*
G36*
X160202Y108797D02*
X159990Y107297D01*
X158067Y106875D01*
X158279Y109220D01*
X160202Y108797D01*
D02*
G37*
G36*
X153160Y106875D02*
X151238Y107297D01*
X151026Y108797D01*
X152948Y109220D01*
X153160Y106875D01*
D02*
G37*
G36*
X99971Y102870D02*
X97655Y104014D01*
X95339Y102870D01*
Y107950D01*
X97655Y106806D01*
X99971Y107950D01*
Y102870D01*
D02*
G37*
G36*
X122856Y106680D02*
X121136Y107178D01*
X120783Y108678D01*
X122264Y109417D01*
X122856Y106680D01*
D02*
G37*
G36*
X115371Y106940D02*
X112830Y106390D01*
Y108930D01*
X115371Y109579D01*
Y106940D01*
D02*
G37*
G36*
X200600Y106517D02*
X198991Y105827D01*
X197931Y106888D01*
X198620Y108497D01*
X200600Y106517D01*
D02*
G37*
G36*
X199149Y104594D02*
X197010D01*
X197330Y105977D01*
X198830D01*
X199149Y104594D01*
D02*
G37*
G36*
X187150D02*
X185011D01*
X185330Y106020D01*
X186830D01*
X187150Y104594D01*
D02*
G37*
G36*
X164076Y105097D02*
Y103597D01*
X162206Y103114D01*
Y105581D01*
X164076Y105097D01*
D02*
G37*
G36*
X149022Y103114D02*
X147152Y103597D01*
Y105097D01*
X149022Y105581D01*
Y103114D01*
D02*
G37*
G36*
X142656Y105097D02*
X142825Y103597D01*
X141266Y102895D01*
X140976Y105680D01*
X142656Y105097D01*
D02*
G37*
G36*
X115371Y103879D02*
Y101241D01*
X112871Y101910D01*
Y104410D01*
X115371Y103879D01*
D02*
G37*
G36*
X120809Y103040D02*
Y100540D01*
X118309Y101241D01*
Y103879D01*
X120809Y103040D01*
D02*
G37*
G36*
X122455Y100390D02*
X121122Y100540D01*
Y103040D01*
X122455Y103190D01*
Y100390D01*
D02*
G37*
G36*
X159990Y101397D02*
X160202Y99897D01*
X158279Y99475D01*
X158067Y101820D01*
X159990Y101397D01*
D02*
G37*
G36*
X152948Y99475D02*
X151026Y99897D01*
X151238Y101397D01*
X153160Y101820D01*
X152948Y99475D01*
D02*
G37*
G36*
X87369Y101940D02*
X86438Y99679D01*
X86490Y99218D01*
X83690D01*
X83738Y99647D01*
X82590Y101971D01*
X87369Y101940D01*
D02*
G37*
G36*
X171088Y99174D02*
X169567Y99897D01*
X169828Y101397D01*
X171532Y101939D01*
X171088Y99174D01*
D02*
G37*
G36*
X94373Y99830D02*
X94387Y99748D01*
X94313Y99704D01*
X94170Y99401D01*
X93806D01*
X92062Y98357D01*
X91867Y99401D01*
X91630D01*
X90430Y101940D01*
X95370D01*
X94373Y99830D01*
D02*
G37*
G36*
X243970Y97948D02*
X241170D01*
X241820Y99574D01*
X243320D01*
X243970Y97948D01*
D02*
G37*
G36*
X236350D02*
X233550D01*
X234200Y99574D01*
X235700D01*
X236350Y97948D01*
D02*
G37*
G36*
X146200Y99419D02*
X145510Y97810D01*
X143530Y99790D01*
X145139Y100480D01*
X146200Y99419D01*
D02*
G37*
G36*
X181150Y99256D02*
X179380Y97664D01*
X177950Y98356D01*
X179011Y100477D01*
X181150Y99256D01*
D02*
G37*
G36*
X87926Y96721D02*
X86159Y94954D01*
X85110Y95790D01*
X87090Y97770D01*
X87926Y96721D01*
D02*
G37*
G36*
X151214Y94939D02*
X149714D01*
X148975Y96529D01*
X151952D01*
X151214Y94939D01*
D02*
G37*
G36*
X166350Y95980D02*
X164370Y94000D01*
X163680Y95609D01*
X164741Y96670D01*
X166350Y95980D01*
D02*
G37*
G36*
X243320Y93466D02*
X242915D01*
X242770Y93069D01*
X241070D01*
X241575Y94079D01*
X241170Y95092D01*
X243970D01*
X243320Y93466D01*
D02*
G37*
G36*
X235941Y94068D02*
X236420Y93069D01*
X233480D01*
X233959Y94068D01*
X233550Y95092D01*
X236350D01*
X235941Y94068D01*
D02*
G37*
G36*
X223720Y93069D02*
X220781D01*
X221500Y94570D01*
X223000D01*
X223720Y93069D01*
D02*
G37*
G36*
X150994Y92783D02*
X150435Y92212D01*
X149362Y93285D01*
X149933Y93844D01*
X150994Y92783D01*
D02*
G37*
G36*
X230070Y93069D02*
X227131D01*
Y90430D01*
X225630Y91000D01*
Y92500D01*
X227131Y93069D01*
X227850Y94570D01*
X229350D01*
X230070Y93069D01*
D02*
G37*
G36*
X225219Y92500D02*
Y91000D01*
X223720Y90430D01*
Y93069D01*
X225219Y92500D01*
D02*
G37*
G36*
X239830Y84731D02*
X238125Y84778D01*
X236420Y84731D01*
Y87369D01*
X238125Y87322D01*
X239830Y87369D01*
Y84731D01*
D02*
G37*
G36*
X233480D02*
X231775Y84778D01*
X230070Y84731D01*
Y87369D01*
X231775Y87322D01*
X233480Y87369D01*
Y84731D01*
D02*
G37*
G36*
X184494Y85212D02*
X183173Y84964D01*
X182473Y87675D01*
X183609Y87712D01*
X184494Y85212D01*
D02*
G37*
G36*
X223290Y116450D02*
X223996D01*
Y113030D01*
X224250Y111754D01*
X224620Y111200D01*
X224590Y110942D01*
X224202Y110076D01*
X223675Y109857D01*
X223043Y109225D01*
X223041Y109220D01*
X224950D01*
Y106680D01*
X223009D01*
X223065Y106200D01*
X223086Y105739D01*
X222879Y105532D01*
X222161Y104814D01*
X221675Y103640D01*
X220267Y102233D01*
X219660Y101323D01*
X219446Y100250D01*
Y96068D01*
X219426Y96038D01*
X219165Y95689D01*
X219141Y95640D01*
X218210D01*
Y93271D01*
X218195Y93211D01*
X218205Y93140D01*
X218191Y93069D01*
X218210Y92973D01*
Y87860D01*
X219250D01*
Y87447D01*
X219869Y87344D01*
X220781Y87370D01*
Y87320D01*
X222250D01*
Y84780D01*
X220781D01*
Y84731D01*
X219250Y84773D01*
Y83200D01*
X221987D01*
X222370Y82276D01*
X220877Y80784D01*
X214733D01*
X207394Y88123D01*
Y96685D01*
X207720D01*
Y107165D01*
X205460D01*
X205160Y107614D01*
Y109420D01*
X204469Y111089D01*
X203192Y112366D01*
X202737Y112554D01*
X202639Y113549D01*
X202749Y113623D01*
X206153Y117026D01*
X223290D01*
Y116450D01*
D02*
G37*
G36*
X58899Y42237D02*
X59429Y40840D01*
X58977D01*
X59009Y40268D01*
X57211D01*
X57243Y40840D01*
X56790D01*
Y37901D01*
X54565Y38075D01*
X53498Y37970D01*
Y40770D01*
X54565Y40665D01*
X56790Y40840D01*
X57321Y42237D01*
X57360Y42935D01*
X58860D01*
X58899Y42237D01*
D02*
G37*
%LPC*%
G36*
X153501Y128822D02*
X151771D01*
Y127242D01*
X151971D01*
Y127291D01*
X153501Y127249D01*
Y128822D01*
D02*
G37*
G36*
X149231D02*
X147501D01*
Y127242D01*
X149231D01*
Y128822D01*
D02*
G37*
G36*
X163790Y128778D02*
X162060D01*
Y127198D01*
X162260D01*
Y127247D01*
X163790Y127205D01*
Y128778D01*
D02*
G37*
G36*
X159520D02*
X157790D01*
Y127232D01*
X159321Y127247D01*
Y127198D01*
X159520D01*
Y128778D01*
D02*
G37*
G36*
X21701Y125590D02*
X18399D01*
X15210Y124735D01*
X12350Y123084D01*
X10015Y120750D01*
X8365Y117890D01*
X7510Y114701D01*
Y111399D01*
X8365Y108210D01*
X10015Y105350D01*
X12350Y103015D01*
X15210Y101365D01*
X18399Y100510D01*
X21701D01*
X24890Y101365D01*
X27750Y103015D01*
X30085Y105350D01*
X31735Y108210D01*
X32590Y111399D01*
Y114701D01*
X31735Y117890D01*
X30085Y120750D01*
X27750Y123084D01*
X24890Y124735D01*
X21701Y125590D01*
D02*
G37*
G36*
X180800Y78090D02*
X179070D01*
Y76510D01*
X180800D01*
Y78090D01*
D02*
G37*
G36*
X176530D02*
X174800D01*
Y74802D01*
X173969Y74247D01*
X173623Y74390D01*
X171817D01*
X170148Y73699D01*
X168871Y72422D01*
X168180Y70753D01*
Y68947D01*
X168871Y67278D01*
X170148Y66001D01*
X171817Y65310D01*
X172973D01*
X173357Y65064D01*
X173773Y64372D01*
X173260Y63133D01*
Y61327D01*
X173912Y59753D01*
X173926Y59629D01*
X173305Y58775D01*
X173096Y58649D01*
X172071D01*
X170402Y57958D01*
X169125Y56681D01*
X168433Y55012D01*
Y53206D01*
X169125Y51538D01*
X170402Y50261D01*
X172071Y49569D01*
X173877D01*
X174371Y49220D01*
X180800D01*
Y49760D01*
X181840D01*
Y54873D01*
X181859Y54970D01*
X181840Y55066D01*
Y55110D01*
X181849Y55196D01*
X181840Y55303D01*
Y57540D01*
X181644D01*
X181630Y57696D01*
X181520Y58074D01*
X181443Y58460D01*
X181437Y58469D01*
X181443Y58478D01*
X181513Y58834D01*
X181623Y59179D01*
X181688Y59753D01*
X182340Y61327D01*
Y63133D01*
X181688Y64707D01*
X181840Y65650D01*
X181840D01*
Y67888D01*
X181849Y67994D01*
X181840Y68080D01*
Y68124D01*
X181859Y68221D01*
X181840Y68317D01*
Y73430D01*
X180800D01*
Y73970D01*
X177800D01*
Y75240D01*
X176530D01*
Y78090D01*
D02*
G37*
G36*
X180800Y46680D02*
X179070D01*
Y45100D01*
X180800D01*
Y46680D01*
D02*
G37*
G36*
X176530D02*
X174800D01*
Y45100D01*
X176530D01*
Y46680D01*
D02*
G37*
G36*
X105981Y55340D02*
X103479D01*
X101167Y54382D01*
X99398Y52613D01*
X98440Y50301D01*
Y47799D01*
X99398Y45487D01*
X101167Y43718D01*
X103479Y42760D01*
X105981D01*
X108293Y43718D01*
X110062Y45487D01*
X111020Y47799D01*
Y50301D01*
X110062Y52613D01*
X108293Y54382D01*
X105981Y55340D01*
D02*
G37*
G36*
X17981D02*
X15479D01*
X13167Y54382D01*
X11398Y52613D01*
X10440Y50301D01*
Y47799D01*
X11398Y45487D01*
X13167Y43718D01*
X15479Y42760D01*
X17981D01*
X20293Y43718D01*
X22062Y45487D01*
X23020Y47799D01*
Y50301D01*
X22062Y52613D01*
X20293Y54382D01*
X17981Y55340D01*
D02*
G37*
G36*
X66660Y42370D02*
X65080D01*
Y40640D01*
X66660D01*
Y42370D01*
D02*
G37*
G36*
Y38100D02*
X65080D01*
Y36370D01*
X66660D01*
Y38100D01*
D02*
G37*
G36*
X270000Y33549D02*
X252000D01*
X251025Y33355D01*
X250198Y32802D01*
X249645Y31975D01*
X249451Y31000D01*
Y19000D01*
X249645Y18024D01*
X250198Y17198D01*
X251025Y16645D01*
X252000Y16451D01*
X270000D01*
X270975Y16645D01*
X271802Y17198D01*
X272355Y18024D01*
X272549Y19000D01*
Y31000D01*
X272355Y31975D01*
X271802Y32802D01*
X270975Y33355D01*
X270000Y33549D01*
D02*
G37*
%LPD*%
G36*
X175419Y70834D02*
X176331Y70859D01*
Y68221D01*
X179270D01*
X179050Y65721D01*
X176550D01*
X176331Y68221D01*
X174581Y68269D01*
X173914Y68246D01*
X173921Y68288D01*
X173831Y68290D01*
Y70790D01*
X174315Y70803D01*
X174348Y71012D01*
X175419Y70834D01*
D02*
G37*
G36*
X179200Y63658D02*
X176400D01*
X176550Y64991D01*
X179050D01*
X179200Y63658D01*
D02*
G37*
G36*
X179050Y59469D02*
X176550D01*
X176400Y60802D01*
X179200D01*
X179050Y59469D01*
D02*
G37*
G36*
X179270Y54970D02*
X176331D01*
Y52330D01*
X173831Y52400D01*
Y54900D01*
X174633Y54922D01*
X174685Y55144D01*
X175724Y54953D01*
X176331Y54970D01*
X176550Y57470D01*
X179050D01*
X179270Y54970D01*
D02*
G37*
G36*
X265519Y26421D02*
X265677Y25750D01*
X261000Y24250D01*
X256323Y25750D01*
X256481Y26421D01*
X259658Y26509D01*
X262342D01*
X265519Y26421D01*
D02*
G37*
D10*
X214072Y126116D02*
X218884D01*
X222745Y125845D02*
X223000Y125590D01*
X218884Y126116D02*
X219155Y125845D01*
X222745D01*
X214056Y126132D02*
X214072Y126116D01*
X211230Y126625D02*
X212600D01*
X213157D02*
X213650Y126132D01*
X212600Y126625D02*
X213157D01*
X213650Y126132D02*
X214056D01*
X207080Y128075D02*
X211080D01*
X223756Y125940D02*
X227230D01*
X223000Y125590D02*
X223406D01*
X227230Y125940D02*
X227330Y126040D01*
X223406Y125590D02*
X223756Y125940D01*
X150501Y125972D02*
X159778D01*
X181553Y85963D02*
X182053Y86462D01*
X204368D01*
X181440Y85963D02*
X181553D01*
X159778Y125972D02*
X159822Y125928D01*
X160790D01*
X170933D01*
X173080Y128075D01*
X155614Y89532D02*
X155843Y89303D01*
X155614Y89532D02*
Y95847D01*
X117610Y101790D02*
X123883D01*
X116840Y102560D02*
X117610Y101790D01*
X116240Y103160D02*
X116840Y102560D01*
X108910Y103160D02*
X116240D01*
X217170Y86360D02*
X217480Y86050D01*
X222250D01*
X85090Y97790D02*
X90655Y92225D01*
X122705D02*
X130810Y100330D01*
X90655Y92225D02*
X122705D01*
X177800Y62230D02*
Y69540D01*
Y53650D02*
Y62230D01*
X172973Y54109D02*
X173433Y53650D01*
X177800D01*
X172720Y69850D02*
X173030Y69540D01*
X177800D01*
X139886Y118296D02*
X145076D01*
X130810Y109220D02*
X139886Y118296D01*
X130810Y100330D02*
Y109220D01*
X84900Y105410D02*
X85090Y105220D01*
Y97790D02*
Y105220D01*
X147014Y120234D02*
X150464D01*
X145076Y118296D02*
X147014Y120234D01*
X171593Y114157D02*
X194230D01*
X234950Y86050D02*
X241300D01*
X228600D02*
X234950D01*
X228600Y83820D02*
Y86050D01*
X222250Y77470D02*
X228600Y83820D01*
X213360Y77470D02*
X222250D01*
X204080Y86750D02*
X213360Y77470D01*
X204080Y86750D02*
Y101925D01*
X200406Y115966D02*
X204780Y120340D01*
X194230Y114157D02*
X196039Y115966D01*
X200406D01*
X165663Y120087D02*
X171593Y114157D01*
X160790Y120228D02*
X160931Y120087D01*
X165663D01*
X204780Y120340D02*
X227330D01*
X201080Y124040D02*
X204780Y120340D01*
X201080Y124040D02*
Y128075D01*
D11*
X258000Y22000D02*
G03*
X261000Y25000I0J3000D01*
G01*
X264000Y22000D02*
G03*
X267000Y25000I0J3000D01*
G01*
X255000D02*
G03*
X258000Y22000I3000J0D01*
G01*
X261000Y25000D02*
G03*
X264000Y22000I3000J-0D01*
G01*
X229950Y107950D02*
Y110410D01*
X196176Y124168D02*
X197976Y122367D01*
X196176Y122287D02*
X197047Y121415D01*
X195080Y120834D02*
Y122453D01*
Y120834D02*
X195518Y120396D01*
X197976Y121295D02*
Y122367D01*
X195080Y125264D02*
Y128075D01*
Y122453D02*
Y125264D01*
X196176Y124168D01*
Y122287D02*
Y124168D01*
X188825Y122160D02*
X189080Y122415D01*
X227330Y120340D02*
X227480D01*
X228080Y120940D02*
Y121049D01*
X229707Y122670D02*
X232477Y125440D01*
X233080D02*
X233990Y126350D01*
X227480Y120340D02*
X228080Y120940D01*
X229701Y122670D02*
X229707D01*
X228080Y121049D02*
X229701Y122670D01*
X232477Y125440D02*
X233080D01*
X165239Y108047D02*
X167285Y110093D01*
X188617D02*
X192080Y106630D01*
X167285Y110093D02*
X188617D01*
X157814Y108047D02*
X165239D01*
X192080Y101925D02*
Y106630D01*
X196317Y121216D02*
X196654D01*
X195080Y122453D02*
X196317Y121216D01*
X255000Y28000D02*
X261000Y25000D01*
X255000D02*
X267000D01*
X261000D02*
X267000Y28000D01*
X139700Y104140D02*
X139907Y104347D01*
X150614D01*
X162424Y81769D02*
X180080Y99425D01*
X80499Y81769D02*
X162424D01*
X180080Y99425D02*
Y101925D01*
X233680Y114300D02*
Y120340D01*
X150544Y111327D02*
X152211D01*
X152264Y111380D02*
X154147D01*
X155614Y112847D01*
X152211Y111327D02*
X152264Y111380D01*
X222250Y91750D02*
X228600D01*
Y98762D01*
X189080Y122415D02*
Y128075D01*
X188825Y122160D02*
X188825D01*
X189312Y121674D01*
X198080Y101925D02*
Y105977D01*
X200620Y108517D01*
X175049Y120439D02*
X177080Y122470D01*
X174480Y120439D02*
X175049D01*
X182772Y121695D02*
X183080Y122004D01*
Y128075D01*
X169117Y104347D02*
X172093Y107323D01*
X184777D02*
X186080Y106020D01*
X172093Y107323D02*
X184777D01*
X233990Y126350D02*
X239720D01*
X240030Y126040D01*
X58110Y39370D02*
Y59380D01*
X80499Y81769D01*
X116840Y108260D02*
X117172Y107928D01*
X123533D01*
X123956Y108351D01*
X177080Y122470D02*
Y128075D01*
X160764Y120202D02*
X160790Y120228D01*
X160764Y111247D02*
Y120202D01*
X150464Y111247D02*
Y120234D01*
X148590Y91440D02*
X150464Y93314D01*
Y97447D01*
X143510Y97790D02*
X146367Y100647D01*
X153414D01*
X143510Y110490D02*
X145953Y108047D01*
X153414D01*
X172403Y100647D02*
X172720Y100330D01*
X157814Y100647D02*
X172403D01*
X162903Y97447D02*
X166370Y93980D01*
X160764Y97447D02*
X162903D01*
X186080Y101925D02*
Y106020D01*
X160614Y104347D02*
X169117D01*
X228600Y98762D02*
X229870Y100032D01*
Y102870D01*
X229950Y102950D01*
X234950Y91750D02*
Y96520D01*
X242570Y93020D02*
Y96520D01*
X241300Y91750D02*
X242570Y93020D01*
Y96520D02*
Y100330D01*
X239950Y102950D02*
X242570Y100330D01*
X234950Y96520D02*
Y102950D01*
X240030Y119070D02*
X241300Y117800D01*
Y114300D02*
Y117800D01*
Y109300D02*
Y114300D01*
X239950Y107950D02*
X241300Y109300D01*
X233680Y114300D02*
X234950Y113030D01*
Y107950D02*
Y113030D01*
X222250Y91750D02*
Y100250D01*
X224950Y102950D01*
D12*
X252000Y19000D02*
Y31000D01*
Y19000D02*
X270000D01*
X252000Y31000D02*
X270000D01*
Y19000D02*
Y31000D01*
D28*
X227330Y113030D02*
Y120340D01*
Y113030D02*
X229950Y110410D01*
X116240Y107660D02*
X116840Y108260D01*
X108910Y107660D02*
X116240D01*
X92900Y105410D02*
X101910D01*
X92900Y98870D02*
X93980Y97790D01*
X92900Y98870D02*
Y105410D01*
X52070Y39370D02*
X58110D01*
D29*
X20480Y49050D02*
G03*
X20480Y49050I-3750J0D01*
G01*
X108480D02*
G03*
X108480Y49050I-3750J0D01*
G01*
X30050Y113050D02*
G03*
X30050Y113050I-10000J0D01*
G01*
D30*
X16730Y49050D02*
D03*
X104730D02*
D03*
D31*
X20050Y113050D02*
D03*
D32*
X280000Y65000D02*
D03*
X218900Y126100D02*
D03*
X214056Y126132D02*
D03*
X166000Y78000D02*
D03*
X68000Y39000D02*
D03*
X223000Y125590D02*
D03*
X216000Y111000D02*
D03*
X196654Y121216D02*
D03*
X267000Y5000D02*
D03*
X279000D02*
D03*
X247500Y127500D02*
D03*
X257500D02*
D03*
X267500D02*
D03*
X274000Y122000D02*
D03*
X82500Y127500D02*
D03*
X92500D02*
D03*
X102500D02*
D03*
X112500D02*
D03*
X122500D02*
D03*
X132500D02*
D03*
X12500D02*
D03*
X22500D02*
D03*
X32500D02*
D03*
X42500D02*
D03*
X52500D02*
D03*
X62500D02*
D03*
X72500D02*
D03*
X5000Y125000D02*
D03*
Y115000D02*
D03*
Y105000D02*
D03*
Y95000D02*
D03*
Y85000D02*
D03*
Y45000D02*
D03*
X280000Y65000D02*
D03*
Y75000D02*
D03*
Y85000D02*
D03*
Y95000D02*
D03*
Y105000D02*
D03*
Y115000D02*
D03*
Y15000D02*
D03*
Y25000D02*
D03*
Y35000D02*
D03*
Y45000D02*
D03*
Y55000D02*
D03*
X215000Y5000D02*
D03*
X225000D02*
D03*
X235000D02*
D03*
X245000D02*
D03*
X255000D02*
D03*
X145000D02*
D03*
X155000D02*
D03*
X165000D02*
D03*
X175000D02*
D03*
X185000D02*
D03*
X195000D02*
D03*
X205000D02*
D03*
X75000D02*
D03*
X85000D02*
D03*
X95000D02*
D03*
X105000D02*
D03*
X115000D02*
D03*
X125000D02*
D03*
X135000D02*
D03*
X65000D02*
D03*
X55000D02*
D03*
X45000D02*
D03*
X35000D02*
D03*
X25000D02*
D03*
X15000D02*
D03*
X5000D02*
D03*
X181440Y85963D02*
D03*
X177800Y62230D02*
D03*
X210500Y31000D02*
D03*
X229250Y20750D02*
D03*
X254000Y80010D02*
D03*
X257810Y111760D02*
D03*
X223520Y67310D02*
D03*
X265000Y90750D02*
D03*
X179790Y23918D02*
D03*
X140525Y22263D02*
D03*
X125403Y48550D02*
D03*
X125000Y87000D02*
D03*
X155843Y89303D02*
D03*
X90170Y73660D02*
D03*
X30480Y16510D02*
D03*
X60960Y24130D02*
D03*
X45720Y68580D02*
D03*
X33020Y88900D02*
D03*
X49530Y115570D02*
D03*
X88900Y114300D02*
D03*
X123883Y101790D02*
D03*
X93762Y32968D02*
D03*
X80954Y61927D02*
D03*
X81552Y16960D02*
D03*
X172720Y77470D02*
D03*
X178903Y42845D02*
D03*
X162560Y45720D02*
D03*
Y62230D02*
D03*
X196850Y69850D02*
D03*
X191770Y76200D02*
D03*
X217170Y86360D02*
D03*
X194698Y93266D02*
D03*
X209550Y110490D02*
D03*
X85090Y97790D02*
D03*
X145076Y118296D02*
D03*
X190946Y114330D02*
D03*
X189312Y121674D02*
D03*
X200620Y108517D02*
D03*
X172720Y69850D02*
D03*
X172973Y54109D02*
D03*
X174480Y120439D02*
D03*
X182772Y121695D02*
D03*
X123956Y108351D02*
D03*
X148590Y91440D02*
D03*
X143510Y97790D02*
D03*
X139700Y104140D02*
D03*
X143510Y110490D02*
D03*
X172720Y100330D02*
D03*
X166370Y93980D02*
D03*
X242570Y96520D02*
D03*
X234950D02*
D03*
X241300Y114300D02*
D03*
X233680D02*
D03*
X93980Y97790D02*
D03*
X52070Y39370D02*
D03*
D33*
X108910Y103160D02*
D03*
Y107660D02*
D03*
D34*
X101910Y105410D02*
D03*
D35*
X240030Y120340D02*
D03*
Y126040D02*
D03*
X234950Y91750D02*
D03*
Y86050D02*
D03*
X241300Y91750D02*
D03*
Y86050D02*
D03*
X233680Y120340D02*
D03*
Y126040D02*
D03*
X228600Y86050D02*
D03*
Y91750D02*
D03*
X116840Y108260D02*
D03*
Y102560D02*
D03*
X227330Y120340D02*
D03*
Y126040D02*
D03*
X222250Y91750D02*
D03*
Y86050D02*
D03*
X177800Y53650D02*
D03*
Y47950D02*
D03*
Y69540D02*
D03*
Y75240D02*
D03*
X160790Y120228D02*
D03*
Y125928D02*
D03*
X150501Y120272D02*
D03*
Y125972D02*
D03*
D36*
X58110Y39370D02*
D03*
X63810D02*
D03*
D37*
X239950Y102950D02*
D03*
Y107950D02*
D03*
X234950Y102950D02*
D03*
Y107950D02*
D03*
X229950Y102950D02*
D03*
Y107950D02*
D03*
X224950Y102950D02*
D03*
Y107950D02*
D03*
D38*
X155614Y112847D02*
D03*
Y95847D02*
D03*
D39*
X150464Y111247D02*
D03*
Y97447D02*
D03*
X160764D02*
D03*
Y111247D02*
D03*
D40*
X153414Y108047D02*
D03*
X157814Y100647D02*
D03*
D41*
X150614Y104347D02*
D03*
X160614D02*
D03*
D42*
X153414Y100647D02*
D03*
X157814Y108047D02*
D03*
D43*
X211080Y128075D02*
D03*
X173080D02*
D03*
X207080D02*
D03*
X204080Y101925D02*
D03*
X201080Y128075D02*
D03*
X198080Y101925D02*
D03*
X195080Y128075D02*
D03*
X192080Y101925D02*
D03*
X189080Y128075D02*
D03*
X186080Y101925D02*
D03*
X183080Y128075D02*
D03*
X180080Y101925D02*
D03*
X177080Y128075D02*
D03*
D44*
X84900Y105410D02*
D03*
X92900D02*
D03*
M02*
