M48
;Layer_Color=9474304
;FILE_FORMAT=4:4
METRIC,TZ
;TYPE=PLATED
T1F00S00C0.2000
;TYPE=NON_PLATED
T2F00S00C0.7500
T3F00S00C2.0000
%
T01
X5000Y5000
X15000
X25000
X35000
X45000
X55000
X65000
X75000
X85000
X95000
X105000
X115000
X125000
X135000
X145000
X155000
X165000
X175000
X185000
X195000
X205000
X215000
X225000
X235000
X245000
X255000
X267000
X279000
X280000Y15000
Y25000
Y35000
Y45000
Y55000
Y65000
Y75000
Y85000
Y95000
Y105000
Y115000
X274000Y122000
X267500Y127500
X257500
X247500
X241300Y114300
X233680
X234950Y96520
X242570
X254000Y80010
X265000Y90750
X257810Y111760
X216000Y111000
X209550Y110490
X200620Y108517
X190946Y114330
X189312Y121674
X182772Y121695
X174480Y120439
X172720Y100330
X166370Y93980
X155843Y89303
X148590Y91440
X143510Y97790
X139700Y104140
X143510Y110490
X145076Y118296
X132500Y127500
X122500
X112500
X102500
X92500
X82500
X72500
X62500
X52500
X42500
X32500
X22500
X12500
X5000Y125000
Y115000
Y105000
Y95000
Y85000
X33020Y88900
X45720Y68580
X52070Y39370
X68000Y39000
X60960Y24130
X81552Y16960
X93762Y32968
X80954Y61927
X90170Y73660
X93980Y97790
X85090
X88900Y114300
X49530Y115570
X123956Y108351
X123883Y101790
X125000Y87000
X125403Y48550
X162560Y45720
Y62230
X177800
X172720Y69850
Y77470
X166000Y78000
X181440Y85963
X191770Y76200
X196850Y69850
X194698Y93266
X217170Y86360
X223520Y67310
X210500Y31000
X229250Y20750
X179790Y23918
X178903Y42845
X172973Y54109
X140525Y22263
X30480Y16510
X5000Y45000
X196654Y121216
X214056Y126132
X218900Y126100
X223000Y125590
T02
X16730Y49050
X104730
T03
X20050Y113050
M30
