G04*
G04 #@! TF.GenerationSoftware,Altium Limited,Altium Designer,22.3.1 (43)*
G04*
G04 Layer_Physical_Order=1*
G04 Layer_Color=255*
%FSLAX44Y44*%
%MOMM*%
G71*
G04*
G04 #@! TF.SameCoordinates,9A4E0D1D-998E-4EB0-AC3D-6FCEA9C2E133*
G04*
G04*
G04 #@! TF.FilePolarity,Positive*
G04*
G01*
G75*
%ADD10C,0.2500*%
%ADD11C,0.1500*%
%ADD12C,0.1000*%
%ADD13R,2.0000X2.4000*%
%ADD14R,1.5000X3.0000*%
%ADD15R,1.6500X2.0000*%
%ADD16R,1.6500X1.8000*%
%ADD17R,0.4000X0.4000*%
%ADD25C,0.2540*%
%ADD26C,0.0100*%
%ADD27C,0.7500*%
%ADD28C,2.0000*%
%ADD29C,0.4000*%
G36*
X285050Y120238D02*
X283050Y119410D01*
X282653Y119807D01*
X281940Y120102D01*
Y116840D01*
Y113578D01*
X282653Y113873D01*
X283050Y114270D01*
X285050Y113442D01*
Y103728D01*
X283050Y102900D01*
X282653Y103297D01*
X281940Y103592D01*
Y100330D01*
Y97068D01*
X282653Y97363D01*
X283050Y97760D01*
X285050Y96932D01*
Y87218D01*
X283050Y86390D01*
X282653Y86787D01*
X281940Y87082D01*
Y83820D01*
Y80558D01*
X282653Y80853D01*
X283050Y81250D01*
X285050Y80422D01*
Y69438D01*
X283050Y68610D01*
X282653Y69007D01*
X281940Y69302D01*
Y66040D01*
Y62778D01*
X282653Y63073D01*
X283050Y63470D01*
X285050Y62642D01*
Y47848D01*
X283050Y47020D01*
X282653Y47417D01*
X281940Y47712D01*
Y44450D01*
Y41188D01*
X282653Y41483D01*
X283050Y41880D01*
X285050Y41052D01*
Y26258D01*
X283050Y25430D01*
X282653Y25827D01*
X281940Y26122D01*
Y22860D01*
Y19598D01*
X282653Y19893D01*
X283050Y20290D01*
X285050Y19462D01*
Y7208D01*
X283050Y6380D01*
X282653Y6777D01*
X281940Y7072D01*
Y3810D01*
X280670D01*
Y2540D01*
X277408D01*
X277631Y2000D01*
X277320Y1129D01*
X276702Y0D01*
X265588D01*
X264970Y1129D01*
X264659Y2000D01*
X264882Y2540D01*
X258358D01*
X258581Y2000D01*
X258270Y1129D01*
X257652Y0D01*
X242728D01*
X242110Y1129D01*
X241799Y2000D01*
X242022Y2540D01*
X235498D01*
X235721Y2000D01*
X235410Y1129D01*
X234792Y0D01*
X219868D01*
X219250Y1129D01*
X218939Y2000D01*
X219162Y2540D01*
X212638D01*
X212861Y2000D01*
X212550Y1129D01*
X211932Y0D01*
X197008D01*
X196390Y1129D01*
X196079Y2000D01*
X196302Y2540D01*
X189778D01*
X190001Y2000D01*
X189690Y1129D01*
X189072Y0D01*
X174148D01*
X173530Y1129D01*
X173219Y2000D01*
X173442Y2540D01*
X166918D01*
X167141Y2000D01*
X166830Y1129D01*
X166212Y0D01*
X151288D01*
X150670Y1129D01*
X150359Y2000D01*
X150582Y2540D01*
X144058D01*
X144281Y2000D01*
X143970Y1129D01*
X143352Y0D01*
X129698D01*
X129080Y1129D01*
X128769Y2000D01*
X128992Y2540D01*
X122468D01*
X122691Y2000D01*
X122380Y1129D01*
X121762Y0D01*
X110648D01*
X110030Y1129D01*
X109719Y2000D01*
X109942Y2540D01*
X103418D01*
X103641Y2000D01*
X103330Y1129D01*
X102712Y0D01*
X91598D01*
X90980Y1129D01*
X90669Y2000D01*
X90892Y2540D01*
X84368D01*
X84591Y2000D01*
X84280Y1129D01*
X83662Y0D01*
X70008D01*
X69390Y1129D01*
X69079Y2000D01*
X69302Y2540D01*
X62778D01*
X63001Y2000D01*
X62690Y1129D01*
X62072Y0D01*
X48418D01*
X47800Y1129D01*
X47489Y2000D01*
X47712Y2540D01*
X41188D01*
X41411Y2000D01*
X41100Y1129D01*
X40482Y0D01*
X28098D01*
X27480Y1129D01*
X27169Y2000D01*
X27392Y2540D01*
X20868D01*
X21091Y2000D01*
X20780Y1129D01*
X20162Y0D01*
X7778D01*
X7160Y1129D01*
X6849Y2000D01*
X7072Y2540D01*
X3810D01*
Y3810D01*
X2540D01*
Y7072D01*
X2000Y6849D01*
X1129Y7160D01*
X0Y7778D01*
Y43022D01*
X1129Y43640D01*
X2000Y43951D01*
X2540Y43728D01*
Y46990D01*
Y50252D01*
X2000Y50029D01*
X1129Y50340D01*
X0Y50958D01*
Y72692D01*
X2000Y73867D01*
X2084Y73820D01*
X2190Y73646D01*
Y53510D01*
X9682D01*
X10941Y51510D01*
X10440Y50301D01*
Y47799D01*
X11398Y45487D01*
X13167Y43718D01*
X15479Y42760D01*
X17981D01*
X20293Y43718D01*
X22062Y45487D01*
X23020Y47799D01*
Y50301D01*
X22519Y51510D01*
X23770Y53510D01*
X23770D01*
Y76590D01*
X8873D01*
X7927Y77470D01*
X3810D01*
Y78740D01*
X2540D01*
Y82002D01*
X2000Y81779D01*
X1129Y82090D01*
X0Y82708D01*
Y88742D01*
X1129Y89360D01*
X2000Y89671D01*
X2540Y89448D01*
Y92710D01*
Y95972D01*
X2000Y95749D01*
X1129Y96060D01*
X0Y96678D01*
Y133050D01*
X38912D01*
X39363Y132521D01*
X40017Y131050D01*
X39918Y130810D01*
X46442D01*
X46343Y131050D01*
X46997Y132521D01*
X47448Y133050D01*
X64312D01*
X64763Y132521D01*
X65417Y131050D01*
X65318Y130810D01*
X71842D01*
X71743Y131050D01*
X72397Y132521D01*
X72848Y133050D01*
X84632D01*
X85083Y132521D01*
X85737Y131050D01*
X85638Y130810D01*
X92162D01*
X92063Y131050D01*
X92717Y132521D01*
X93168Y133050D01*
X103682D01*
X104133Y132521D01*
X104787Y131050D01*
X104688Y130810D01*
X111212D01*
X111113Y131050D01*
X111767Y132521D01*
X112218Y133050D01*
X125475D01*
X125495Y133036D01*
X126519Y131270D01*
X133481D01*
X134505Y133036D01*
X134525Y133050D01*
X151942D01*
X152393Y132521D01*
X153047Y131050D01*
X152948Y130810D01*
X159472D01*
X159373Y131050D01*
X160027Y132521D01*
X160478Y133050D01*
X215442D01*
X215893Y132521D01*
X216547Y131050D01*
X216448Y130810D01*
X222972D01*
X222873Y131050D01*
X223527Y132521D01*
X223978Y133050D01*
X242112D01*
X242563Y132521D01*
X243217Y131050D01*
X243118Y130810D01*
X249642D01*
X249543Y131050D01*
X250197Y132521D01*
X250648Y133050D01*
X263702D01*
X264153Y132521D01*
X264807Y131050D01*
X264708Y130810D01*
X271232D01*
X271133Y131050D01*
X271787Y132521D01*
X272238Y133050D01*
X285050D01*
Y120238D01*
D02*
G37*
%LPC*%
G36*
X133262Y128730D02*
X131270D01*
Y126738D01*
X131983Y127033D01*
X132967Y128017D01*
X133262Y128730D01*
D02*
G37*
G36*
X128730D02*
X126738D01*
X127033Y128017D01*
X128017Y127033D01*
X128730Y126738D01*
Y128730D01*
D02*
G37*
G36*
X271232Y128270D02*
X269240D01*
Y126278D01*
X269953Y126573D01*
X270937Y127557D01*
X271232Y128270D01*
D02*
G37*
G36*
X266700D02*
X264708D01*
X265003Y127557D01*
X265987Y126573D01*
X266700Y126278D01*
Y128270D01*
D02*
G37*
G36*
X249642D02*
X247650D01*
Y126278D01*
X248363Y126573D01*
X249347Y127557D01*
X249642Y128270D01*
D02*
G37*
G36*
X245110D02*
X243118D01*
X243413Y127557D01*
X244397Y126573D01*
X245110Y126278D01*
Y128270D01*
D02*
G37*
G36*
X111212D02*
X109220D01*
Y126278D01*
X109933Y126573D01*
X110917Y127557D01*
X111212Y128270D01*
D02*
G37*
G36*
X106680D02*
X104688D01*
X104983Y127557D01*
X105967Y126573D01*
X106680Y126278D01*
Y128270D01*
D02*
G37*
G36*
X92162D02*
X90170D01*
Y126278D01*
X90883Y126573D01*
X91867Y127557D01*
X92162Y128270D01*
D02*
G37*
G36*
X87630D02*
X85638D01*
X85933Y127557D01*
X86917Y126573D01*
X87630Y126278D01*
Y128270D01*
D02*
G37*
G36*
X71842D02*
X69850D01*
Y126278D01*
X70563Y126573D01*
X71547Y127557D01*
X71842Y128270D01*
D02*
G37*
G36*
X67310D02*
X65318D01*
X65613Y127557D01*
X66597Y126573D01*
X67310Y126278D01*
Y128270D01*
D02*
G37*
G36*
X46442D02*
X44450D01*
Y126278D01*
X45163Y126573D01*
X46147Y127557D01*
X46442Y128270D01*
D02*
G37*
G36*
X41910D02*
X39918D01*
X40213Y127557D01*
X41197Y126573D01*
X41910Y126278D01*
Y128270D01*
D02*
G37*
G36*
X223759D02*
X215662D01*
X214700Y127264D01*
X199698D01*
X198625Y127050D01*
X197715Y126443D01*
X197029Y125756D01*
X195751D01*
X194699Y125320D01*
X194699Y125320D01*
X194082Y125065D01*
X191917Y125489D01*
X191883Y125523D01*
X190215Y126214D01*
X188409D01*
X186740Y125523D01*
X186052Y124835D01*
X185343Y125544D01*
X183675Y126235D01*
X181869D01*
X180200Y125544D01*
X179304Y124648D01*
X178923Y124267D01*
X178128Y124276D01*
X176808Y124388D01*
X175383Y124979D01*
X173905D01*
X173060Y125824D01*
X172151Y126431D01*
X171078Y126645D01*
X160878D01*
X159862Y128270D01*
X152558D01*
X151542Y126645D01*
X139446D01*
X138373Y126431D01*
X137464Y125824D01*
X124531Y112891D01*
X123053D01*
X121540Y113902D01*
Y120040D01*
X96460D01*
Y103384D01*
X94883Y102330D01*
X93077D01*
X91408Y101639D01*
X90819Y101049D01*
X89535Y100580D01*
X88251Y101049D01*
X87662Y101639D01*
X85993Y102330D01*
X84187D01*
X83540Y102062D01*
X81540Y103274D01*
Y120040D01*
X56460D01*
Y90960D01*
X81540D01*
Y92306D01*
X83540Y93518D01*
X84187Y93250D01*
X85993D01*
X87662Y93941D01*
X88251Y94531D01*
X89535Y95000D01*
X90819Y94531D01*
X91408Y93941D01*
X93077Y93250D01*
X94883D01*
X96460Y92196D01*
Y90960D01*
X121540D01*
Y96808D01*
X122613Y97774D01*
Y101790D01*
X123883D01*
Y103060D01*
X127146D01*
X126851Y103773D01*
X127530Y105504D01*
X127805Y105779D01*
X128496Y107448D01*
Y108926D01*
X138536Y118965D01*
X140536Y118137D01*
Y117393D01*
X140909Y116491D01*
X140938Y114339D01*
X139661Y113062D01*
X138970Y111393D01*
Y109587D01*
X139136Y109187D01*
X138797Y108680D01*
X137128Y107989D01*
X135851Y106712D01*
X135160Y105043D01*
Y103237D01*
X135851Y101568D01*
X137128Y100291D01*
X137547Y100118D01*
X138970Y98693D01*
Y96887D01*
X139661Y95218D01*
X140938Y93941D01*
X142312Y93372D01*
X144050Y92343D01*
X144050Y90537D01*
X144741Y88868D01*
X146018Y87591D01*
X147687Y86900D01*
X149493D01*
X151162Y87591D01*
X153298Y86898D01*
X153860Y86336D01*
X154573Y86040D01*
Y89303D01*
X157113D01*
Y86040D01*
X157825Y86336D01*
X158353Y86863D01*
X160355Y87189D01*
X160901Y87142D01*
X165090Y82953D01*
X166165Y82235D01*
X167433Y81983D01*
X169641D01*
X170283Y79983D01*
X169753Y79453D01*
X169458Y78740D01*
X172720D01*
Y76200D01*
X168968D01*
X167967Y74660D01*
X162830D01*
Y65730D01*
X161864D01*
X160577Y65197D01*
X159593Y64213D01*
X159298Y63500D01*
X162560D01*
Y60960D01*
X159298D01*
X159593Y60247D01*
X160577Y59263D01*
X161864Y58730D01*
X161864Y58730D01*
X162830Y58660D01*
X162830Y56882D01*
Y49580D01*
X161692Y49181D01*
X161563Y49096D01*
X160577Y48687D01*
X159593Y47703D01*
X159298Y46990D01*
X162560D01*
Y45720D01*
X163830D01*
Y42458D01*
X164222Y42620D01*
X166100D01*
Y46120D01*
X167370D01*
Y47390D01*
X170870D01*
Y48063D01*
X172071Y49569D01*
X173877D01*
X175545Y50261D01*
X176822Y51538D01*
X177514Y53206D01*
Y55012D01*
X177233Y55690D01*
X178427Y57690D01*
X178703D01*
X180372Y58381D01*
X181103Y59112D01*
X182595Y59570D01*
X183734Y59465D01*
X184341Y59059D01*
X185609Y58806D01*
X186830D01*
Y49580D01*
Y41580D01*
X195910D01*
Y43316D01*
X199790D01*
X200863Y43530D01*
X201773Y44137D01*
X211533Y53897D01*
X212140Y54807D01*
X212354Y55880D01*
Y83615D01*
X213656Y84152D01*
X214354Y84226D01*
X215187Y83393D01*
X215900Y83098D01*
Y86360D01*
Y89622D01*
X215187Y89327D01*
X214354Y88494D01*
X213656Y88568D01*
X212354Y89105D01*
Y99587D01*
X212140Y100660D01*
X211533Y101570D01*
X207870Y105233D01*
X208280Y105965D01*
Y110490D01*
X209550D01*
Y111760D01*
X212812D01*
X212517Y112473D01*
X211533Y113457D01*
X210246Y113990D01*
X209979D01*
X209151Y115990D01*
X211007Y117846D01*
X216748D01*
X217213Y117271D01*
X217832Y115846D01*
X217718Y115570D01*
X224242D01*
X224128Y115846D01*
X224747Y117271D01*
X225212Y117846D01*
X228193D01*
X229406Y115846D01*
X229140Y115203D01*
Y113397D01*
X229831Y111728D01*
X231108Y110451D01*
X232777Y109760D01*
X234583D01*
X236252Y110451D01*
X237490Y111690D01*
X238728Y110451D01*
X240397Y109760D01*
X242203D01*
X243872Y110451D01*
X245149Y111728D01*
X245840Y113397D01*
Y115203D01*
X245149Y116872D01*
X244104Y117917D01*
Y118896D01*
X243890Y119969D01*
X243283Y120879D01*
X237719Y126443D01*
X236809Y127050D01*
X235736Y127264D01*
X224720D01*
X223759Y128270D01*
D02*
G37*
G36*
X279400Y120102D02*
X278687Y119807D01*
X277703Y118823D01*
X277408Y118110D01*
X279400D01*
Y120102D01*
D02*
G37*
G36*
X50800Y118832D02*
Y116840D01*
X52792D01*
X52497Y117553D01*
X51513Y118537D01*
X50800Y118832D01*
D02*
G37*
G36*
X48260D02*
X47547Y118537D01*
X46563Y117553D01*
X46268Y116840D01*
X48260D01*
Y118832D01*
D02*
G37*
G36*
X90170Y117562D02*
Y115570D01*
X92162D01*
X91867Y116283D01*
X90883Y117267D01*
X90170Y117562D01*
D02*
G37*
G36*
X87630D02*
X86917Y117267D01*
X85933Y116283D01*
X85638Y115570D01*
X87630D01*
Y117562D01*
D02*
G37*
G36*
X279400Y115570D02*
X277408D01*
X277703Y114857D01*
X278687Y113873D01*
X279400Y113578D01*
Y115570D01*
D02*
G37*
G36*
X259080Y115022D02*
Y113030D01*
X261072D01*
X260777Y113743D01*
X259793Y114727D01*
X259080Y115022D01*
D02*
G37*
G36*
X256540D02*
X255827Y114727D01*
X254843Y113743D01*
X254548Y113030D01*
X256540D01*
Y115022D01*
D02*
G37*
G36*
X52792Y114300D02*
X50800D01*
Y112308D01*
X51513Y112603D01*
X52497Y113587D01*
X52792Y114300D01*
D02*
G37*
G36*
X48260D02*
X46268D01*
X46563Y113587D01*
X47547Y112603D01*
X48260Y112308D01*
Y114300D01*
D02*
G37*
G36*
X224242Y113030D02*
X222250D01*
Y111038D01*
X222963Y111333D01*
X223947Y112317D01*
X224242Y113030D01*
D02*
G37*
G36*
X219710D02*
X217718D01*
X218013Y112317D01*
X218997Y111333D01*
X219710Y111038D01*
Y113030D01*
D02*
G37*
G36*
X92162D02*
X90170D01*
Y111038D01*
X90883Y111333D01*
X91867Y112317D01*
X92162Y113030D01*
D02*
G37*
G36*
X87630D02*
X85638D01*
X85933Y112317D01*
X86917Y111333D01*
X87630Y111038D01*
Y113030D01*
D02*
G37*
G36*
X261072Y110490D02*
X259080D01*
Y108498D01*
X259793Y108793D01*
X260777Y109777D01*
X261072Y110490D01*
D02*
G37*
G36*
X256540D02*
X254548D01*
X254843Y109777D01*
X255827Y108793D01*
X256540Y108498D01*
Y110490D01*
D02*
G37*
G36*
X212812Y109220D02*
X210820D01*
Y107228D01*
X211533Y107523D01*
X212517Y108507D01*
X212812Y109220D01*
D02*
G37*
G36*
X279400Y103592D02*
X278687Y103297D01*
X277703Y102313D01*
X277408Y101600D01*
X279400D01*
Y103592D01*
D02*
G37*
G36*
X21701Y125590D02*
X18399D01*
X15210Y124735D01*
X12350Y123084D01*
X10015Y120750D01*
X8365Y117890D01*
X7510Y114701D01*
Y111399D01*
X8365Y108210D01*
X10015Y105350D01*
X12350Y103015D01*
X15210Y101365D01*
X18399Y100510D01*
X21701D01*
X24890Y101365D01*
X27750Y103015D01*
X30085Y105350D01*
X31735Y108210D01*
X32590Y111399D01*
Y114701D01*
X31735Y117890D01*
X30085Y120750D01*
X27750Y123084D01*
X24890Y124735D01*
X21701Y125590D01*
D02*
G37*
G36*
X243473Y101060D02*
X241667D01*
X239998Y100369D01*
X238760Y99130D01*
X237522Y100369D01*
X235853Y101060D01*
X234047D01*
X232378Y100369D01*
X231101Y99092D01*
X230410Y97423D01*
Y95617D01*
X231101Y93948D01*
X232378Y92671D01*
X234047Y91980D01*
X235853D01*
X237522Y92671D01*
X238760Y93910D01*
X239998Y92671D01*
X241667Y91980D01*
X243473D01*
X245142Y92671D01*
X246419Y93948D01*
X247110Y95617D01*
Y97423D01*
X246419Y99092D01*
X245142Y100369D01*
X243473Y101060D01*
D02*
G37*
G36*
X127146Y100520D02*
X125153D01*
Y98528D01*
X125866Y98823D01*
X126851Y99808D01*
X127146Y100520D01*
D02*
G37*
G36*
X279400Y99060D02*
X277408D01*
X277703Y98347D01*
X278687Y97363D01*
X279400Y97068D01*
Y99060D01*
D02*
G37*
G36*
X5080Y95972D02*
Y93980D01*
X7072D01*
X6777Y94693D01*
X5793Y95677D01*
X5080Y95972D01*
D02*
G37*
G36*
X137160Y93432D02*
Y91440D01*
X139152D01*
X138857Y92153D01*
X137873Y93137D01*
X137160Y93432D01*
D02*
G37*
G36*
X134620D02*
X133907Y93137D01*
X132923Y92153D01*
X132628Y91440D01*
X134620D01*
Y93432D01*
D02*
G37*
G36*
X34290Y92162D02*
Y90170D01*
X36282D01*
X35987Y90883D01*
X35003Y91867D01*
X34290Y92162D01*
D02*
G37*
G36*
X31750D02*
X31037Y91867D01*
X30053Y90883D01*
X29758Y90170D01*
X31750D01*
Y92162D01*
D02*
G37*
G36*
X7072Y91440D02*
X5080D01*
Y89448D01*
X5793Y89743D01*
X6777Y90727D01*
X7072Y91440D01*
D02*
G37*
G36*
X218440Y89622D02*
Y87630D01*
X220432D01*
X220137Y88343D01*
X219153Y89327D01*
X218440Y89622D01*
D02*
G37*
G36*
X139152Y88900D02*
X137160D01*
Y86908D01*
X137873Y87203D01*
X138857Y88187D01*
X139152Y88900D01*
D02*
G37*
G36*
X134620D02*
X132628D01*
X132923Y88187D01*
X133907Y87203D01*
X134620Y86908D01*
Y88900D01*
D02*
G37*
G36*
X36282Y87630D02*
X34290D01*
Y85638D01*
X35003Y85933D01*
X35987Y86917D01*
X36282Y87630D01*
D02*
G37*
G36*
X31750D02*
X29758D01*
X30053Y86917D01*
X31037Y85933D01*
X31750Y85638D01*
Y87630D01*
D02*
G37*
G36*
X279400Y87082D02*
X278687Y86787D01*
X277703Y85803D01*
X277408Y85090D01*
X279400D01*
Y87082D01*
D02*
G37*
G36*
X220432Y85090D02*
X218440D01*
Y83098D01*
X219153Y83393D01*
X220137Y84377D01*
X220432Y85090D01*
D02*
G37*
G36*
X255270Y83272D02*
Y81280D01*
X257262D01*
X256967Y81993D01*
X255983Y82977D01*
X255270Y83272D01*
D02*
G37*
G36*
X252730D02*
X252017Y82977D01*
X251033Y81993D01*
X250738Y81280D01*
X252730D01*
Y83272D01*
D02*
G37*
G36*
X279400Y82550D02*
X277408D01*
X277703Y81837D01*
X278687Y80853D01*
X279400Y80558D01*
Y82550D01*
D02*
G37*
G36*
X5080Y82002D02*
Y80010D01*
X7072D01*
X6777Y80723D01*
X5793Y81707D01*
X5080Y82002D01*
D02*
G37*
G36*
X257262Y78740D02*
X255270D01*
Y76748D01*
X255983Y77043D01*
X256967Y78027D01*
X257262Y78740D01*
D02*
G37*
G36*
X252730D02*
X250738D01*
X251033Y78027D01*
X252017Y77043D01*
X252730Y76748D01*
Y78740D01*
D02*
G37*
G36*
X129313Y77507D02*
Y75514D01*
X131305D01*
X131010Y76227D01*
X130025Y77211D01*
X129313Y77507D01*
D02*
G37*
G36*
X126773D02*
X126060Y77211D01*
X125076Y76227D01*
X124781Y75514D01*
X126773D01*
Y77507D01*
D02*
G37*
G36*
X152383Y77121D02*
Y75128D01*
X154375D01*
X154080Y75841D01*
X153096Y76825D01*
X152383Y77121D01*
D02*
G37*
G36*
X149843D02*
X149130Y76825D01*
X148146Y75841D01*
X147851Y75128D01*
X149843D01*
Y77121D01*
D02*
G37*
G36*
X91440Y76922D02*
Y74930D01*
X93432D01*
X93137Y75643D01*
X92153Y76627D01*
X91440Y76922D01*
D02*
G37*
G36*
X88900D02*
X88187Y76627D01*
X87203Y75643D01*
X86908Y74930D01*
X88900D01*
Y76922D01*
D02*
G37*
G36*
X131305Y72974D02*
X129313D01*
Y70982D01*
X130025Y71277D01*
X131010Y72262D01*
X131305Y72974D01*
D02*
G37*
G36*
X126773D02*
X124781D01*
X125076Y72262D01*
X126060Y71277D01*
X126773Y70982D01*
Y72974D01*
D02*
G37*
G36*
X154375Y72588D02*
X152383D01*
Y70596D01*
X153096Y70891D01*
X154080Y71876D01*
X154375Y72588D01*
D02*
G37*
G36*
X149843D02*
X147851D01*
X148146Y71876D01*
X149130Y70891D01*
X149843Y70596D01*
Y72588D01*
D02*
G37*
G36*
X93432Y72390D02*
X91440D01*
Y70398D01*
X92153Y70693D01*
X93137Y71677D01*
X93432Y72390D01*
D02*
G37*
G36*
X88900D02*
X86908D01*
X87203Y71677D01*
X88187Y70693D01*
X88900Y70398D01*
Y72390D01*
D02*
G37*
G36*
X46990Y71842D02*
Y69850D01*
X48982D01*
X48687Y70563D01*
X47703Y71547D01*
X46990Y71842D01*
D02*
G37*
G36*
X44450D02*
X43737Y71547D01*
X42753Y70563D01*
X42458Y69850D01*
X44450D01*
Y71842D01*
D02*
G37*
G36*
X224790Y70572D02*
Y68580D01*
X226782D01*
X226487Y69293D01*
X225503Y70277D01*
X224790Y70572D01*
D02*
G37*
G36*
X222250D02*
X221537Y70277D01*
X220553Y69293D01*
X220258Y68580D01*
X222250D01*
Y70572D01*
D02*
G37*
G36*
X279400Y69302D02*
X278687Y69007D01*
X277703Y68023D01*
X277408Y67310D01*
X279400D01*
Y69302D01*
D02*
G37*
G36*
X48982Y67310D02*
X46990D01*
Y65318D01*
X47703Y65613D01*
X48687Y66597D01*
X48982Y67310D01*
D02*
G37*
G36*
X44450D02*
X42458D01*
X42753Y66597D01*
X43737Y65613D01*
X44450Y65318D01*
Y67310D01*
D02*
G37*
G36*
X226782Y66040D02*
X224790D01*
Y64048D01*
X225503Y64343D01*
X226487Y65327D01*
X226782Y66040D01*
D02*
G37*
G36*
X222250D02*
X220258D01*
X220553Y65327D01*
X221537Y64343D01*
X222250Y64048D01*
Y66040D01*
D02*
G37*
G36*
X82224Y65190D02*
Y63197D01*
X84216D01*
X83921Y63910D01*
X82936Y64895D01*
X82224Y65190D01*
D02*
G37*
G36*
X79684D02*
X78971Y64895D01*
X77987Y63910D01*
X77691Y63197D01*
X79684D01*
Y65190D01*
D02*
G37*
G36*
X279400Y64770D02*
X277408D01*
X277703Y64057D01*
X278687Y63073D01*
X279400Y62778D01*
Y64770D01*
D02*
G37*
G36*
X84216Y60658D02*
X82224D01*
Y58665D01*
X82936Y58960D01*
X83921Y59945D01*
X84216Y60658D01*
D02*
G37*
G36*
X79684D02*
X77691D01*
X77987Y59945D01*
X78971Y58960D01*
X79684Y58665D01*
Y60658D01*
D02*
G37*
G36*
X119270Y76590D02*
X97690D01*
Y53510D01*
X97690D01*
X98941Y51510D01*
X98440Y50301D01*
Y47799D01*
X99398Y45487D01*
X101167Y43718D01*
X103479Y42760D01*
X105981D01*
X108293Y43718D01*
X110062Y45487D01*
X111020Y47799D01*
Y50301D01*
X110519Y51510D01*
X111778Y53510D01*
X119270D01*
Y76590D01*
D02*
G37*
G36*
X126673Y51812D02*
Y49820D01*
X128666D01*
X128370Y50532D01*
X127386Y51517D01*
X126673Y51812D01*
D02*
G37*
G36*
X124133D02*
X123421Y51517D01*
X122436Y50532D01*
X122141Y49820D01*
X124133D01*
Y51812D01*
D02*
G37*
G36*
X5080Y50252D02*
Y48260D01*
X7072D01*
X6777Y48973D01*
X5793Y49957D01*
X5080Y50252D01*
D02*
G37*
G36*
X263270Y48262D02*
Y46270D01*
X265262D01*
X264967Y46983D01*
X263983Y47967D01*
X263270Y48262D01*
D02*
G37*
G36*
X260730D02*
X260017Y47967D01*
X259033Y46983D01*
X258738Y46270D01*
X260730D01*
Y48262D01*
D02*
G37*
G36*
X240270D02*
Y46270D01*
X242262D01*
X241967Y46983D01*
X240983Y47967D01*
X240270Y48262D01*
D02*
G37*
G36*
X237730D02*
X237017Y47967D01*
X236033Y46983D01*
X235738Y46270D01*
X237730D01*
Y48262D01*
D02*
G37*
G36*
X279400Y47712D02*
X278687Y47417D01*
X277703Y46433D01*
X277408Y45720D01*
X279400D01*
Y47712D01*
D02*
G37*
G36*
X128666Y47280D02*
X126673D01*
Y45288D01*
X127386Y45583D01*
X128370Y46567D01*
X128666Y47280D01*
D02*
G37*
G36*
X124133D02*
X122141D01*
X122436Y46567D01*
X123421Y45583D01*
X124133Y45288D01*
Y47280D01*
D02*
G37*
G36*
X180173Y46107D02*
Y44115D01*
X182166D01*
X181870Y44827D01*
X180886Y45812D01*
X180173Y46107D01*
D02*
G37*
G36*
X177633D02*
X176921Y45812D01*
X175936Y44827D01*
X175641Y44115D01*
X177633D01*
Y46107D01*
D02*
G37*
G36*
X7072Y45720D02*
X5080D01*
Y43728D01*
X5793Y44023D01*
X6777Y45007D01*
X7072Y45720D01*
D02*
G37*
G36*
X170870Y44850D02*
X168640D01*
Y42620D01*
X170870D01*
Y44850D01*
D02*
G37*
G36*
X161290Y44450D02*
X159298D01*
X159593Y43737D01*
X160577Y42753D01*
X161290Y42458D01*
Y44450D01*
D02*
G37*
G36*
X265262Y43730D02*
X263270D01*
Y41738D01*
X263983Y42033D01*
X264967Y43017D01*
X265262Y43730D01*
D02*
G37*
G36*
X260730D02*
X258738D01*
X259033Y43017D01*
X260017Y42033D01*
X260730Y41738D01*
Y43730D01*
D02*
G37*
G36*
X242262D02*
X240270D01*
Y41738D01*
X240983Y42033D01*
X241967Y43017D01*
X242262Y43730D01*
D02*
G37*
G36*
X237730D02*
X235738D01*
X236033Y43017D01*
X237017Y42033D01*
X237730Y41738D01*
Y43730D01*
D02*
G37*
G36*
X279400Y43180D02*
X277408D01*
X277703Y42467D01*
X278687Y41483D01*
X279400Y41188D01*
Y43180D01*
D02*
G37*
G36*
X67434Y42450D02*
Y40457D01*
X69426D01*
X69131Y41170D01*
X68147Y42154D01*
X67434Y42450D01*
D02*
G37*
G36*
X64894D02*
X64182Y42154D01*
X63197Y41170D01*
X62902Y40457D01*
X64894D01*
Y42450D01*
D02*
G37*
G36*
X89730Y55550D02*
X82000D01*
Y40320D01*
X89730D01*
Y55550D01*
D02*
G37*
G36*
X79460D02*
X71730D01*
Y40320D01*
X79460D01*
Y55550D01*
D02*
G37*
G36*
X182166Y41575D02*
X180173D01*
Y39583D01*
X180886Y39878D01*
X181870Y40862D01*
X182166Y41575D01*
D02*
G37*
G36*
X177633D02*
X175641D01*
X175936Y40862D01*
X176921Y39878D01*
X177633Y39583D01*
Y41575D01*
D02*
G37*
G36*
X119270Y38590D02*
X97690D01*
Y36818D01*
X95745Y35935D01*
X95032Y36230D01*
Y32968D01*
Y29705D01*
X95745Y30000D01*
X97690Y29117D01*
Y13510D01*
X119270D01*
Y38590D01*
D02*
G37*
G36*
X69426Y37917D02*
X67434D01*
Y35925D01*
X68147Y36220D01*
X69131Y37205D01*
X69426Y37917D01*
D02*
G37*
G36*
X64894D02*
X62902D01*
X63197Y37205D01*
X64182Y36220D01*
X64894Y35925D01*
Y37917D01*
D02*
G37*
G36*
X89730Y37780D02*
X82000D01*
Y22550D01*
X89730D01*
Y29222D01*
X91730Y30050D01*
X91780Y30000D01*
X92492Y29705D01*
Y32968D01*
Y36230D01*
X91780Y35935D01*
X91730Y35885D01*
X89730Y36713D01*
Y37780D01*
D02*
G37*
G36*
X62230Y27392D02*
Y25400D01*
X64222D01*
X63927Y26113D01*
X62943Y27097D01*
X62230Y27392D01*
D02*
G37*
G36*
X59690D02*
X58977Y27097D01*
X57993Y26113D01*
X57698Y25400D01*
X59690D01*
Y27392D01*
D02*
G37*
G36*
X240270Y27262D02*
Y25270D01*
X242262D01*
X241967Y25983D01*
X240983Y26967D01*
X240270Y27262D01*
D02*
G37*
G36*
X237730D02*
X237017Y26967D01*
X236033Y25983D01*
X235738Y25270D01*
X237730D01*
Y27262D01*
D02*
G37*
G36*
X181060Y27180D02*
Y25188D01*
X183052D01*
X182757Y25900D01*
X181773Y26885D01*
X181060Y27180D01*
D02*
G37*
G36*
X178520D02*
X177807Y26885D01*
X176823Y25900D01*
X176528Y25188D01*
X178520D01*
Y27180D01*
D02*
G37*
G36*
X279400Y26122D02*
X278687Y25827D01*
X277703Y24843D01*
X277408Y24130D01*
X279400D01*
Y26122D01*
D02*
G37*
G36*
X141795Y25525D02*
Y23533D01*
X143787D01*
X143492Y24246D01*
X142508Y25230D01*
X141795Y25525D01*
D02*
G37*
G36*
X139255D02*
X138542Y25230D01*
X137558Y24246D01*
X137263Y23533D01*
X139255D01*
Y25525D01*
D02*
G37*
G36*
X79460Y37780D02*
X71730D01*
Y22550D01*
X79460D01*
Y37780D01*
D02*
G37*
G36*
X64222Y22860D02*
X62230D01*
Y20868D01*
X62943Y21163D01*
X63927Y22147D01*
X64222Y22860D01*
D02*
G37*
G36*
X59690D02*
X57698D01*
X57993Y22147D01*
X58977Y21163D01*
X59690Y20868D01*
Y22860D01*
D02*
G37*
G36*
X242262Y22730D02*
X240270D01*
Y20738D01*
X240983Y21033D01*
X241967Y22017D01*
X242262Y22730D01*
D02*
G37*
G36*
X237730D02*
X235738D01*
X236033Y22017D01*
X237017Y21033D01*
X237730Y20738D01*
Y22730D01*
D02*
G37*
G36*
X183052Y22648D02*
X181060D01*
Y20655D01*
X181773Y20951D01*
X182757Y21935D01*
X183052Y22648D01*
D02*
G37*
G36*
X178520D02*
X176528D01*
X176823Y21935D01*
X177807Y20951D01*
X178520Y20655D01*
Y22648D01*
D02*
G37*
G36*
X279400Y21590D02*
X277408D01*
X277703Y20877D01*
X278687Y19893D01*
X279400Y19598D01*
Y21590D01*
D02*
G37*
G36*
X143787Y20993D02*
X141795D01*
Y19001D01*
X142508Y19296D01*
X143492Y20280D01*
X143787Y20993D01*
D02*
G37*
G36*
X139255D02*
X137263D01*
X137558Y20280D01*
X138542Y19296D01*
X139255Y19001D01*
Y20993D01*
D02*
G37*
G36*
X82822Y20222D02*
Y18230D01*
X84815D01*
X84519Y18943D01*
X83535Y19927D01*
X82822Y20222D01*
D02*
G37*
G36*
X80282D02*
X79570Y19927D01*
X78585Y18943D01*
X78290Y18230D01*
X80282D01*
Y20222D01*
D02*
G37*
G36*
X50770Y56590D02*
X30690D01*
Y22010D01*
X30690Y21717D01*
X30179Y20755D01*
X29633Y19948D01*
X28497Y19477D01*
X27513Y18493D01*
X27218Y17780D01*
X33742D01*
X33447Y18493D01*
X32463Y19477D01*
X32383Y19510D01*
X32781Y21510D01*
X50770D01*
Y34565D01*
X51167Y34830D01*
X52973D01*
X54642Y35521D01*
X55919Y36798D01*
X56610Y38467D01*
Y40273D01*
X55919Y41942D01*
X54642Y43219D01*
X52973Y43910D01*
X51167D01*
X50770Y44175D01*
Y56590D01*
D02*
G37*
G36*
X270000Y33549D02*
X252000D01*
X251025Y33355D01*
X250198Y32802D01*
X249645Y31975D01*
X249451Y31000D01*
Y19000D01*
X249645Y18025D01*
X250198Y17198D01*
X251025Y16645D01*
X252000Y16451D01*
X270000D01*
X270975Y16645D01*
X271802Y17198D01*
X272355Y18025D01*
X272549Y19000D01*
Y31000D01*
X272355Y31975D01*
X271802Y32802D01*
X270975Y33355D01*
X270000Y33549D01*
D02*
G37*
G36*
X84815Y15690D02*
X82822D01*
Y13698D01*
X83535Y13993D01*
X84519Y14978D01*
X84815Y15690D01*
D02*
G37*
G36*
X80282D02*
X78290D01*
X78585Y14978D01*
X79570Y13993D01*
X80282Y13698D01*
Y15690D01*
D02*
G37*
G36*
X23770Y38590D02*
X2190D01*
Y13510D01*
X23770D01*
Y38590D01*
D02*
G37*
G36*
X33742Y15240D02*
X31750D01*
Y13248D01*
X32463Y13543D01*
X33447Y14527D01*
X33742Y15240D01*
D02*
G37*
G36*
X29210D02*
X27218D01*
X27513Y14527D01*
X28497Y13543D01*
X29210Y13248D01*
Y15240D01*
D02*
G37*
G36*
X279400Y7072D02*
X278687Y6777D01*
X277703Y5793D01*
X277408Y5080D01*
X279400D01*
Y7072D01*
D02*
G37*
G36*
X262890D02*
Y5080D01*
X264882D01*
X264587Y5793D01*
X263603Y6777D01*
X262890Y7072D01*
D02*
G37*
G36*
X260350D02*
X259637Y6777D01*
X258653Y5793D01*
X258358Y5080D01*
X260350D01*
Y7072D01*
D02*
G37*
G36*
X240030D02*
Y5080D01*
X242022D01*
X241727Y5793D01*
X240743Y6777D01*
X240030Y7072D01*
D02*
G37*
G36*
X237490D02*
X236777Y6777D01*
X235793Y5793D01*
X235498Y5080D01*
X237490D01*
Y7072D01*
D02*
G37*
G36*
X217170D02*
Y5080D01*
X219162D01*
X218867Y5793D01*
X217883Y6777D01*
X217170Y7072D01*
D02*
G37*
G36*
X214630D02*
X213917Y6777D01*
X212933Y5793D01*
X212638Y5080D01*
X214630D01*
Y7072D01*
D02*
G37*
G36*
X194310D02*
Y5080D01*
X196302D01*
X196007Y5793D01*
X195023Y6777D01*
X194310Y7072D01*
D02*
G37*
G36*
X191770D02*
X191057Y6777D01*
X190073Y5793D01*
X189778Y5080D01*
X191770D01*
Y7072D01*
D02*
G37*
G36*
X171450D02*
Y5080D01*
X173442D01*
X173147Y5793D01*
X172163Y6777D01*
X171450Y7072D01*
D02*
G37*
G36*
X168910D02*
X168197Y6777D01*
X167213Y5793D01*
X166918Y5080D01*
X168910D01*
Y7072D01*
D02*
G37*
G36*
X148590D02*
Y5080D01*
X150582D01*
X150287Y5793D01*
X149303Y6777D01*
X148590Y7072D01*
D02*
G37*
G36*
X146050D02*
X145337Y6777D01*
X144353Y5793D01*
X144058Y5080D01*
X146050D01*
Y7072D01*
D02*
G37*
G36*
X127000D02*
Y5080D01*
X128992D01*
X128697Y5793D01*
X127713Y6777D01*
X127000Y7072D01*
D02*
G37*
G36*
X124460D02*
X123747Y6777D01*
X122763Y5793D01*
X122468Y5080D01*
X124460D01*
Y7072D01*
D02*
G37*
G36*
X107950D02*
Y5080D01*
X109942D01*
X109647Y5793D01*
X108663Y6777D01*
X107950Y7072D01*
D02*
G37*
G36*
X105410D02*
X104697Y6777D01*
X103713Y5793D01*
X103418Y5080D01*
X105410D01*
Y7072D01*
D02*
G37*
G36*
X88900D02*
Y5080D01*
X90892D01*
X90597Y5793D01*
X89613Y6777D01*
X88900Y7072D01*
D02*
G37*
G36*
X86360D02*
X85647Y6777D01*
X84663Y5793D01*
X84368Y5080D01*
X86360D01*
Y7072D01*
D02*
G37*
G36*
X67310D02*
Y5080D01*
X69302D01*
X69007Y5793D01*
X68023Y6777D01*
X67310Y7072D01*
D02*
G37*
G36*
X64770D02*
X64057Y6777D01*
X63073Y5793D01*
X62778Y5080D01*
X64770D01*
Y7072D01*
D02*
G37*
G36*
X45720D02*
Y5080D01*
X47712D01*
X47417Y5793D01*
X46433Y6777D01*
X45720Y7072D01*
D02*
G37*
G36*
X43180D02*
X42467Y6777D01*
X41483Y5793D01*
X41188Y5080D01*
X43180D01*
Y7072D01*
D02*
G37*
G36*
X25400D02*
Y5080D01*
X27392D01*
X27097Y5793D01*
X26113Y6777D01*
X25400Y7072D01*
D02*
G37*
G36*
X22860D02*
X22147Y6777D01*
X21163Y5793D01*
X20868Y5080D01*
X22860D01*
Y7072D01*
D02*
G37*
G36*
X5080D02*
Y5080D01*
X7072D01*
X6777Y5793D01*
X5793Y6777D01*
X5080Y7072D01*
D02*
G37*
%LPD*%
G36*
X202936Y91549D02*
Y62121D01*
X197910Y57095D01*
X195910Y57338D01*
Y66187D01*
X196154Y66350D01*
X197546D01*
X198833Y66883D01*
X199817Y67867D01*
X200112Y68580D01*
X196850D01*
Y71120D01*
X200112D01*
X199817Y71833D01*
X198833Y72817D01*
X197546Y73350D01*
X197001D01*
X196580Y73434D01*
X196567D01*
X195575Y74930D01*
X191770D01*
Y77470D01*
X195032D01*
X194737Y78183D01*
X193753Y79167D01*
X192466Y79700D01*
X191949D01*
X190978Y79855D01*
X190004Y81421D01*
Y90398D01*
X190716Y90762D01*
X192004Y91011D01*
X192716Y90299D01*
X193428Y90003D01*
Y93266D01*
X195968D01*
Y90003D01*
X196681Y90299D01*
X197666Y91283D01*
X198198Y92570D01*
Y93458D01*
X199682Y94345D01*
X200046Y94439D01*
X202936Y91549D01*
D02*
G37*
D10*
X181440Y85963D02*
X181497Y85906D01*
X167433Y85296D02*
X180887D01*
X181497Y85906D01*
X153670Y99060D02*
X167433Y85296D01*
X162560Y45720D02*
X162960Y46120D01*
X167370D01*
X196580Y70120D02*
X196850Y69850D01*
X191370Y70120D02*
X196580D01*
X162560Y62230D02*
X162670Y62120D01*
X167370D01*
X181650Y66080D02*
X185609Y62120D01*
X191370D01*
X177800Y62230D02*
X181650Y66080D01*
Y74970D01*
X172450Y70120D02*
X172720Y69850D01*
X167370Y70120D02*
X172450D01*
X186690Y80010D02*
Y109600D01*
X181650Y74970D02*
X186690Y80010D01*
X153670Y99060D02*
Y109973D01*
X76710Y97790D02*
X85090D01*
X69000Y105500D02*
X76710Y97790D01*
X145076Y118296D02*
X145347D01*
X153670Y109973D01*
X190946Y113989D02*
Y114330D01*
Y113989D02*
X191013Y113922D01*
X186690Y109600D02*
X191013Y113922D01*
X172963Y54120D02*
X172973Y54109D01*
X167370Y54120D02*
X172963D01*
D11*
X264000Y22000D02*
G03*
X267000Y25000I0J3000D01*
G01*
X261000D02*
G03*
X264000Y22000I3000J-0D01*
G01*
X258000D02*
G03*
X261000Y25000I0J3000D01*
G01*
X255000D02*
G03*
X258000Y22000I3000J0D01*
G01*
X255000Y25000D02*
X267000D01*
X255000Y28000D02*
X261000Y25000D01*
X267000Y28000D01*
X171078Y123841D02*
X174480Y120439D01*
X123956Y108351D02*
X139446Y123841D01*
X171078D01*
X179070Y110761D02*
X189185Y120876D01*
X179070Y97790D02*
Y110761D01*
X188849Y121212D02*
X189185Y120876D01*
X188849Y121211D02*
X189312Y121674D01*
X197561Y121591D02*
Y122323D01*
X199698Y124460D02*
X235736D01*
X196920Y120950D02*
X197561Y121591D01*
X195696Y119725D02*
X196920Y120950D01*
X197561Y122323D02*
X199698Y124460D01*
X196654Y121216D02*
X196920Y120950D01*
X195696Y102754D02*
Y119725D01*
Y102754D02*
X205740Y92710D01*
X200620Y108517D02*
X209550Y99587D01*
X200620Y108517D02*
Y111425D01*
X209846Y120650D01*
X209550Y55880D02*
Y99587D01*
X209846Y120650D02*
X231140D01*
X175706Y114630D02*
X175759D01*
X178740Y117611D02*
Y117664D01*
X175759Y114630D02*
X178740Y117611D01*
Y117664D02*
X182772Y121695D01*
X172720Y100330D02*
Y111644D01*
X175706Y114630D01*
X191370Y46120D02*
X199790D01*
X209550Y55880D01*
X205740Y60960D02*
Y92710D01*
X235736Y124460D02*
X241300Y118896D01*
X198900Y54120D02*
X205740Y60960D01*
X191370Y54120D02*
X198900D01*
X233680Y114300D02*
Y118110D01*
X231140Y120650D02*
X233680Y118110D01*
X175260Y93980D02*
X179070Y97790D01*
X166370Y93980D02*
X175260D01*
X241300Y114300D02*
Y118896D01*
D12*
X252000Y31000D02*
X270000D01*
X252000Y19000D02*
X270000D01*
Y31000D01*
X252000Y19000D02*
Y31000D01*
D13*
X109000Y105500D02*
D03*
X69000D02*
D03*
D14*
X40730Y39050D02*
D03*
X80730D02*
D03*
D15*
X12980Y26050D02*
D03*
X108480D02*
D03*
D16*
Y65050D02*
D03*
X12980D02*
D03*
D17*
X191370Y70120D02*
D03*
Y62120D02*
D03*
Y54120D02*
D03*
Y46120D02*
D03*
X167370D02*
D03*
Y54120D02*
D03*
Y62120D02*
D03*
Y70120D02*
D03*
D25*
X93980Y97790D02*
X101290D01*
X109000Y105500D01*
X51750Y39050D02*
X52070Y39370D01*
X40730Y39050D02*
X51750D01*
D26*
X20480Y49050D02*
G03*
X20480Y49050I-3750J0D01*
G01*
X108480D02*
G03*
X108480Y49050I-3750J0D01*
G01*
X30050Y113050D02*
G03*
X30050Y113050I-10000J0D01*
G01*
D27*
X16730Y49050D02*
D03*
X104730D02*
D03*
D28*
X20050Y113050D02*
D03*
D29*
X181440Y85963D02*
D03*
X177800Y62230D02*
D03*
X239000Y45000D02*
D03*
X262000D02*
D03*
X254000Y80010D02*
D03*
X257810Y111760D02*
D03*
X223520Y67310D02*
D03*
X239000Y24000D02*
D03*
X179790Y23918D02*
D03*
X140525Y22263D02*
D03*
X125403Y48550D02*
D03*
X151113Y73858D02*
D03*
X128043Y74244D02*
D03*
X155843Y89303D02*
D03*
X135890Y90170D02*
D03*
X90170Y73660D02*
D03*
X30480Y16510D02*
D03*
X60960Y24130D02*
D03*
X45720Y68580D02*
D03*
X33020Y88900D02*
D03*
X49530Y115570D02*
D03*
X88900Y114300D02*
D03*
X123883Y101790D02*
D03*
X66164Y39187D02*
D03*
X93762Y32968D02*
D03*
X80954Y61927D02*
D03*
X81552Y16960D02*
D03*
X172720Y77470D02*
D03*
X178903Y42845D02*
D03*
X162560Y45720D02*
D03*
Y62230D02*
D03*
X196850Y69850D02*
D03*
X191770Y76200D02*
D03*
X217170Y86360D02*
D03*
X194698Y93266D02*
D03*
X209550Y110490D02*
D03*
X220980Y114300D02*
D03*
X219710Y129540D02*
D03*
X246380D02*
D03*
X267970D02*
D03*
X280670Y83820D02*
D03*
Y100330D02*
D03*
Y116840D02*
D03*
Y66040D02*
D03*
Y44450D02*
D03*
Y22860D02*
D03*
X238760Y3810D02*
D03*
X261620D02*
D03*
X280670D02*
D03*
X215900D02*
D03*
X193040D02*
D03*
X170180D02*
D03*
X147320D02*
D03*
X125730D02*
D03*
X106680D02*
D03*
X87630D02*
D03*
X66040D02*
D03*
X44450D02*
D03*
X24130D02*
D03*
X3810D02*
D03*
Y46990D02*
D03*
Y78740D02*
D03*
Y92710D02*
D03*
X43180Y129540D02*
D03*
X68580D02*
D03*
X88900D02*
D03*
X107950D02*
D03*
X130000Y130000D02*
D03*
X156210Y129540D02*
D03*
X85090Y97790D02*
D03*
X145076Y118296D02*
D03*
X190946Y114330D02*
D03*
X189312Y121674D02*
D03*
X196654Y121216D02*
D03*
X200620Y108517D02*
D03*
X172720Y69850D02*
D03*
X172973Y54109D02*
D03*
X174480Y120439D02*
D03*
X182772Y121695D02*
D03*
X123956Y108351D02*
D03*
X148590Y91440D02*
D03*
X143510Y97790D02*
D03*
X139700Y104140D02*
D03*
X143510Y110490D02*
D03*
X172720Y100330D02*
D03*
X166370Y93980D02*
D03*
X242570Y96520D02*
D03*
X234950D02*
D03*
X241300Y114300D02*
D03*
X233680D02*
D03*
X93980Y97790D02*
D03*
X52070Y39370D02*
D03*
M02*
