G04*
G04 #@! TF.GenerationSoftware,Altium Limited,Altium Designer,22.3.1 (43)*
G04*
G04 Layer_Color=65535*
%FSLAX44Y44*%
%MOMM*%
G71*
G04*
G04 #@! TF.SameCoordinates,9A4E0D1D-998E-4EB0-AC3D-6FCEA9C2E133*
G04*
G04*
G04 #@! TF.FilePolarity,Positive*
G04*
G01*
G75*
%ADD10C,0.2500*%
%ADD11C,0.1500*%
%ADD12C,0.1000*%
D10*
X197620Y75870D02*
G03*
X197620Y75870I-500J0D01*
G01*
D11*
X176870Y52120D02*
G03*
X176870Y52120I-3500J0D01*
G01*
X187120Y70120D02*
G03*
X187120Y70120I-750J0D01*
G01*
X163620Y73870D02*
X195120D01*
Y42370D02*
Y73870D01*
X163620Y42370D02*
X195120D01*
X163620D02*
Y73870D01*
X176968Y39679D02*
Y33847D01*
X178135Y32681D01*
X180467D01*
X181634Y33847D01*
Y39679D01*
X188631Y32681D02*
X183966D01*
X188631Y37346D01*
Y38513D01*
X187465Y39679D01*
X185133D01*
X183966Y38513D01*
X36501Y72333D02*
X35335Y73499D01*
X33002D01*
X31836Y72333D01*
Y71166D01*
X33002Y70000D01*
X35335D01*
X36501Y68834D01*
Y67667D01*
X35335Y66501D01*
X33002D01*
X31836Y67667D01*
X38834Y73499D02*
Y66501D01*
X41166Y68834D01*
X43499Y66501D01*
Y73499D01*
X45831Y66501D02*
X48164D01*
X46998D01*
Y73499D01*
X45831Y72333D01*
X46501Y96836D02*
X53499D01*
Y100335D01*
X52333Y101501D01*
X51166D01*
X50000Y100335D01*
Y96836D01*
Y100335D01*
X48834Y101501D01*
X47667D01*
X46501Y100335D01*
Y96836D01*
Y103834D02*
Y108499D01*
X47667D01*
X52333Y103834D01*
X53499D01*
Y108499D01*
Y110831D02*
Y113164D01*
Y111998D01*
X46501D01*
X47667Y110831D01*
D12*
X64000Y119500D02*
Y125500D01*
X61000Y122500D02*
X67000D01*
X69000Y119500D02*
Y125500D01*
X109000D01*
Y119500D02*
Y125500D01*
Y85500D02*
Y91500D01*
X69000Y85500D02*
X109000D01*
X69000D02*
Y91500D01*
X23730Y59050D02*
X97230D01*
X104730Y38550D02*
Y43550D01*
Y9050D02*
Y14050D01*
X16730Y9050D02*
X104730D01*
X16730D02*
Y14050D01*
Y38050D02*
Y44050D01*
X43730Y-17950D02*
Y8550D01*
Y-17950D02*
X77730D01*
Y9050D01*
M02*
