M48
;Layer_Color=9474304
;FILE_FORMAT=4:4
METRIC,TZ
;TYPE=PLATED
T1F00S00C0.2000
;TYPE=NON_PLATED
T2F00S00C0.7500
T3F00S00C2.0000
%
T01
X3810Y3810
X24130
X30480Y16510
X44450Y3810
X66040
X87630
X106680
X125730
X147320
X170180
X193040
X215900
X238760
X239000Y24000
Y45000
X262000
X280670Y44450
Y66040
Y83820
Y100330
Y116840
X267970Y129540
X246380
X241300Y114300
X233680
X220980
X209550Y110490
X200620Y108517
X190946Y114330
X189312Y121674
X182772Y121695
X174480Y120439
X172720Y100330
X166370Y93980
X155843Y89303
X148590Y91440
X143510Y97790
X139700Y104140
X143510Y110490
X145076Y118296
X156210Y129540
X130000Y130000
X107950Y129540
X88900
Y114300
X85090Y97790
X93980
X90170Y73660
X80954Y61927
X66164Y39187
X52070Y39370
X60960Y24130
X81552Y16960
X93762Y32968
X125403Y48550
X128043Y74244
X151113Y73858
X162560Y62230
X177800
X172720Y69850
Y77470
X181440Y85963
X191770Y76200
X196850Y69850
X194698Y93266
X217170Y86360
X223520Y67310
X234950Y96520
X242570
X254000Y80010
X257810Y111760
X219710Y129540
X196654Y121216
X123956Y108351
X123883Y101790
X135890Y90170
X162560Y45720
X172973Y54109
X178903Y42845
X179790Y23918
X140525Y22263
X261620Y3810
X280670
Y22860
X45720Y68580
X33020Y88900
X3810Y92710
Y78740
Y46990
X49530Y115570
X43180Y129540
X68580
T02
X16730Y49050
X104730
T03
X20050Y113050
M30
