G04*
G04 #@! TF.GenerationSoftware,Altium Limited,Altium Designer,22.3.1 (43)*
G04*
G04 Layer_Color=16711935*
%FSLAX44Y44*%
%MOMM*%
G71*
G04*
G04 #@! TF.SameCoordinates,5DEEFCEC-B4EF-4BAA-9DDD-B190CD102143*
G04*
G04*
G04 #@! TF.FilePolarity,Positive*
G04*
G01*
G75*
%ADD17C,0.0100*%
D17*
X498000Y0D02*
G03*
X500000Y2000I-0J2000D01*
G01*
X494500D02*
G03*
X496500Y0I2000J0D01*
G01*
X494500Y2000D02*
G03*
X492500Y4000I-2000J-0D01*
G01*
Y4000D02*
G03*
X490500Y2000I0J-2000D01*
G01*
X488500Y0D02*
G03*
X490500Y2000I-0J2000D01*
G01*
X490500Y41000D02*
G03*
X488500Y43000I-2000J-0D01*
G01*
X490500Y41000D02*
G03*
X492500Y39000I2000J0D01*
G01*
D02*
G03*
X494500Y41000I0J2000D01*
G01*
X496500Y43000D02*
G03*
X494500Y41000I0J-2000D01*
G01*
X500000D02*
G03*
X498000Y43000I-2000J-0D01*
G01*
X0Y2000D02*
G03*
X2000Y0I2000J0D01*
G01*
X3500Y0D02*
G03*
X5500Y2000I-0J2000D01*
G01*
X7500Y4000D02*
G03*
X5500Y2000I-0J-2000D01*
G01*
X9500D02*
G03*
X7500Y4000I-2000J0D01*
G01*
X9500Y2000D02*
G03*
X11500Y0I2000J0D01*
G01*
Y43000D02*
G03*
X9500Y41000I0J-2000D01*
G01*
X7500Y39000D02*
G03*
X9500Y41000I0J2000D01*
G01*
X5500D02*
G03*
X7500Y39000I2000J0D01*
G01*
X5500Y41000D02*
G03*
X3500Y43000I-2000J-0D01*
G01*
X2000Y43000D02*
G03*
X0Y41000I0J-2000D01*
G01*
X470000Y0D02*
Y43000D01*
X30000Y0D02*
Y43000D01*
X20000Y0D02*
X480000D01*
X20000Y43000D02*
X480000D01*
X496500D02*
X498000D01*
X500000Y2000D02*
Y41000D01*
X496500Y0D02*
X498000D01*
X480000D02*
X488500D01*
X480000D02*
Y43000D01*
X488500D01*
X11500Y0D02*
X20000D01*
Y43000D01*
X11500D02*
X20000D01*
X2000D02*
X3500D01*
X0Y2000D02*
Y41000D01*
X2000Y0D02*
X3500D01*
M02*
